<?xml version="1.0" encoding="UTF-8" standalone="no"?>
<!-- Created with Inkscape (http://www.inkscape.org/) -->

<svg
   xmlns:dc="http://purl.org/dc/elements/1.1/"
   xmlns:cc="http://creativecommons.org/ns#"
   xmlns:rdf="http://www.w3.org/1999/02/22-rdf-syntax-ns#"
   xmlns:svg="http://www.w3.org/2000/svg"
   xmlns="http://www.w3.org/2000/svg"
   xmlns:sodipodi="http://sodipodi.sourceforge.net/DTD/sodipodi-0.dtd"
   xmlns:inkscape="http://www.inkscape.org/namespaces/inkscape"
   width="153.46712mm"
   height="125.40616mm"
   viewBox="0 0 543.78112 444.35253"
   id="svg2"
   version="1.1"
   inkscape:version="0.91 r13725"
   sodipodi:docname="farm-blackbox.svg">
  <defs
     id="defs4" />
  <sodipodi:namedview
     id="base"
     pagecolor="#ffffff"
     bordercolor="#666666"
     borderopacity="1.0"
     inkscape:pageopacity="0.0"
     inkscape:pageshadow="2"
     inkscape:zoom="1.4"
     inkscape:cx="445.8907"
     inkscape:cy="132.98249"
     inkscape:document-units="px"
     inkscape:current-layer="layer1"
     showgrid="false"
     inkscape:window-width="1916"
     inkscape:window-height="1155"
     inkscape:window-x="1"
     inkscape:window-y="0"
     inkscape:window-maximized="0"
     fit-margin-top="0"
     fit-margin-left="0"
     fit-margin-right="0"
     fit-margin-bottom="0" />
  <metadata
     id="metadata7">
    <rdf:RDF>
      <cc:Work
         rdf:about="">
        <dc:format>image/svg+xml</dc:format>
        <dc:type
           rdf:resource="http://purl.org/dc/dcmitype/StillImage" />
        <dc:title></dc:title>
      </cc:Work>
    </rdf:RDF>
  </metadata>
  <g
     inkscape:label="Layer 1"
     inkscape:groupmode="layer"
     id="layer1"
     transform="translate(-102.71429,-55.95378)">
    <rect
       style="color:#000000;display:inline;overflow:visible;visibility:visible;fill:#fff446;fill-opacity:1;fill-rule:evenodd;stroke:#000000;stroke-width:1px;stroke-linecap:butt;stroke-linejoin:miter;stroke-miterlimit:4;stroke-dasharray:none;stroke-dashoffset:0;stroke-opacity:1;marker:none;enable-background:accumulate"
       id="rect4819"
       width="543.57141"
       height="447.85715"
       x="103.42857"
       y="55.30632" />
    <g
       id="g4590"
       transform="translate(-12.857143,-170)">
      <path
         inkscape:connector-curvature="0"
         id="path4572"
         d="m 115.71429,436.64792 c 95,0 95,0 95,0"
         style="fill:none;fill-rule:evenodd;stroke:#000000;stroke-width:1px;stroke-linecap:butt;stroke-linejoin:miter;stroke-opacity:1" />
      <path
         style="fill:none;fill-rule:evenodd;stroke:#000000;stroke-width:1px;stroke-linecap:butt;stroke-linejoin:miter;stroke-opacity:1"
         d="m 115.71429,463.79078 c 95,0 95,0 95,0"
         id="path4574"
         inkscape:connector-curvature="0" />
      <path
         inkscape:connector-curvature="0"
         id="path4576"
         d="m 210,435.93363 0,-19.28571"
         style="fill:none;fill-rule:evenodd;stroke:#000000;stroke-width:1px;stroke-linecap:butt;stroke-linejoin:miter;stroke-opacity:1" />
      <path
         style="fill:none;fill-rule:evenodd;stroke:#000000;stroke-width:1px;stroke-linecap:butt;stroke-linejoin:miter;stroke-opacity:1"
         d="m 210,435.93363 0,-19.28571"
         id="path4578"
         inkscape:connector-curvature="0" />
      <path
         inkscape:connector-curvature="0"
         id="path4580"
         d="m 210,482.3622 0,-19.28571"
         style="fill:none;fill-rule:evenodd;stroke:#000000;stroke-width:1px;stroke-linecap:butt;stroke-linejoin:miter;stroke-opacity:1" />
      <path
         inkscape:connector-curvature="0"
         id="path4582"
         d="m 209.64286,415.93364 c 56.39434,32.55928 56.81684,32.80322 56.81684,32.80322"
         style="fill:none;fill-rule:evenodd;stroke:#000000;stroke-width:1px;stroke-linecap:butt;stroke-linejoin:miter;stroke-opacity:1" />
      <path
         style="fill:none;fill-rule:evenodd;stroke:#000000;stroke-width:1px;stroke-linecap:butt;stroke-linejoin:miter;stroke-opacity:1"
         d="m 210.71429,481.594 c 56.39434,-32.55928 56.81684,-32.80322 56.81684,-32.80322"
         id="path4584"
         inkscape:connector-curvature="0" />
      <path
         inkscape:connector-curvature="0"
         id="path4586"
         d="m 116.07143,436.29078 c 0,27.14285 0,27.14285 0,27.14285"
         style="fill:none;fill-rule:evenodd;stroke:#000000;stroke-width:1px;stroke-linecap:butt;stroke-linejoin:miter;stroke-opacity:1" />
    </g>
    <rect
       style="color:#000000;display:inline;overflow:visible;visibility:visible;fill:none;fill-opacity:1;fill-rule:evenodd;stroke:#000000;stroke-width:1px;stroke-linecap:butt;stroke-linejoin:miter;stroke-miterlimit:4;stroke-dasharray:none;stroke-dashoffset:0;stroke-opacity:1;marker:none;enable-background:accumulate"
       id="rect4588"
       width="240"
       height="140"
       x="254.69635"
       y="208.93141" />
    <g
       id="g4600"
       transform="matrix(0,1,-1,0,823.62777,232.52518)">
      <path
         style="fill:none;fill-rule:evenodd;stroke:#000000;stroke-width:1px;stroke-linecap:butt;stroke-linejoin:miter;stroke-opacity:1"
         d="m 115.71429,436.64792 c 95,0 95,0 95,0"
         id="path4602"
         inkscape:connector-curvature="0" />
      <path
         inkscape:connector-curvature="0"
         id="path4604"
         d="m 115.71429,463.79078 c 95,0 95,0 95,0"
         style="fill:none;fill-rule:evenodd;stroke:#000000;stroke-width:1px;stroke-linecap:butt;stroke-linejoin:miter;stroke-opacity:1" />
      <path
         style="fill:none;fill-rule:evenodd;stroke:#000000;stroke-width:1px;stroke-linecap:butt;stroke-linejoin:miter;stroke-opacity:1"
         d="m 210,435.93363 0,-19.28571"
         id="path4606"
         inkscape:connector-curvature="0" />
      <path
         inkscape:connector-curvature="0"
         id="path4608"
         d="m 210,435.93363 0,-19.28571"
         style="fill:none;fill-rule:evenodd;stroke:#000000;stroke-width:1px;stroke-linecap:butt;stroke-linejoin:miter;stroke-opacity:1" />
      <path
         style="fill:none;fill-rule:evenodd;stroke:#000000;stroke-width:1px;stroke-linecap:butt;stroke-linejoin:miter;stroke-opacity:1"
         d="m 210,482.3622 0,-19.28571"
         id="path4610"
         inkscape:connector-curvature="0" />
      <path
         style="fill:none;fill-rule:evenodd;stroke:#000000;stroke-width:1px;stroke-linecap:butt;stroke-linejoin:miter;stroke-opacity:1"
         d="m 209.64286,415.93364 c 56.39434,32.55928 56.81684,32.80322 56.81684,32.80322"
         id="path4612"
         inkscape:connector-curvature="0" />
      <path
         inkscape:connector-curvature="0"
         id="path4614"
         d="m 210.71429,481.594 c 56.39434,-32.55928 56.81684,-32.80322 56.81684,-32.80322"
         style="fill:none;fill-rule:evenodd;stroke:#000000;stroke-width:1px;stroke-linecap:butt;stroke-linejoin:miter;stroke-opacity:1" />
      <path
         style="fill:none;fill-rule:evenodd;stroke:#000000;stroke-width:1px;stroke-linecap:butt;stroke-linejoin:miter;stroke-opacity:1"
         d="m 116.07143,436.29078 c 0,27.14285 0,27.14285 0,27.14285"
         id="path4616"
         inkscape:connector-curvature="0" />
    </g>
    <g
       transform="matrix(0,1,-1,0,823.62777,-59.61765)"
       id="g4618">
      <path
         style="fill:none;fill-rule:evenodd;stroke:#000000;stroke-width:1px;stroke-linecap:butt;stroke-linejoin:miter;stroke-opacity:1"
         d="m 115.71429,436.64792 c 95,0 95,0 95,0"
         id="path4620"
         inkscape:connector-curvature="0" />
      <path
         inkscape:connector-curvature="0"
         id="path4622"
         d="m 115.71429,463.79078 c 95,0 95,0 95,0"
         style="fill:none;fill-rule:evenodd;stroke:#000000;stroke-width:1px;stroke-linecap:butt;stroke-linejoin:miter;stroke-opacity:1" />
      <path
         style="fill:none;fill-rule:evenodd;stroke:#000000;stroke-width:1px;stroke-linecap:butt;stroke-linejoin:miter;stroke-opacity:1"
         d="m 210,435.93363 0,-19.28571"
         id="path4624"
         inkscape:connector-curvature="0" />
      <path
         inkscape:connector-curvature="0"
         id="path4626"
         d="m 210,435.93363 0,-19.28571"
         style="fill:none;fill-rule:evenodd;stroke:#000000;stroke-width:1px;stroke-linecap:butt;stroke-linejoin:miter;stroke-opacity:1" />
      <path
         style="fill:none;fill-rule:evenodd;stroke:#000000;stroke-width:1px;stroke-linecap:butt;stroke-linejoin:miter;stroke-opacity:1"
         d="m 210,482.3622 0,-19.28571"
         id="path4628"
         inkscape:connector-curvature="0" />
      <path
         style="fill:none;fill-rule:evenodd;stroke:#000000;stroke-width:1px;stroke-linecap:butt;stroke-linejoin:miter;stroke-opacity:1"
         d="m 209.64286,415.93364 c 56.39434,32.55928 56.81684,32.80322 56.81684,32.80322"
         id="path4630"
         inkscape:connector-curvature="0" />
      <path
         inkscape:connector-curvature="0"
         id="path4632"
         d="m 210.71429,481.594 c 56.39434,-32.55928 56.81684,-32.80322 56.81684,-32.80322"
         style="fill:none;fill-rule:evenodd;stroke:#000000;stroke-width:1px;stroke-linecap:butt;stroke-linejoin:miter;stroke-opacity:1" />
      <path
         style="fill:none;fill-rule:evenodd;stroke:#000000;stroke-width:1px;stroke-linecap:butt;stroke-linejoin:miter;stroke-opacity:1"
         d="m 116.07143,436.29078 c 0,27.14285 0,27.14285 0,27.14285"
         id="path4634"
         inkscape:connector-curvature="0" />
    </g>
    <g
       transform="translate(378.71429,-170)"
       id="g4636">
      <path
         style="fill:none;fill-rule:evenodd;stroke:#000000;stroke-width:1px;stroke-linecap:butt;stroke-linejoin:miter;stroke-opacity:1"
         d="m 115.71429,436.64792 c 95,0 95,0 95,0"
         id="path4638"
         inkscape:connector-curvature="0" />
      <path
         inkscape:connector-curvature="0"
         id="path4640"
         d="m 115.71429,463.79078 c 95,0 95,0 95,0"
         style="fill:none;fill-rule:evenodd;stroke:#000000;stroke-width:1px;stroke-linecap:butt;stroke-linejoin:miter;stroke-opacity:1" />
      <path
         style="fill:none;fill-rule:evenodd;stroke:#000000;stroke-width:1px;stroke-linecap:butt;stroke-linejoin:miter;stroke-opacity:1"
         d="m 210,435.93363 0,-19.28571"
         id="path4642"
         inkscape:connector-curvature="0" />
      <path
         inkscape:connector-curvature="0"
         id="path4644"
         d="m 210,435.93363 0,-19.28571"
         style="fill:none;fill-rule:evenodd;stroke:#000000;stroke-width:1px;stroke-linecap:butt;stroke-linejoin:miter;stroke-opacity:1" />
      <path
         style="fill:none;fill-rule:evenodd;stroke:#000000;stroke-width:1px;stroke-linecap:butt;stroke-linejoin:miter;stroke-opacity:1"
         d="m 210,482.3622 0,-19.28571"
         id="path4646"
         inkscape:connector-curvature="0" />
      <path
         style="fill:none;fill-rule:evenodd;stroke:#000000;stroke-width:1px;stroke-linecap:butt;stroke-linejoin:miter;stroke-opacity:1"
         d="m 209.64286,415.93364 c 56.39434,32.55928 56.81684,32.80322 56.81684,32.80322"
         id="path4648"
         inkscape:connector-curvature="0" />
      <path
         inkscape:connector-curvature="0"
         id="path4650"
         d="m 210.71429,481.594 c 56.39434,-32.55928 56.81684,-32.80322 56.81684,-32.80322"
         style="fill:none;fill-rule:evenodd;stroke:#000000;stroke-width:1px;stroke-linecap:butt;stroke-linejoin:miter;stroke-opacity:1" />
      <path
         style="fill:none;fill-rule:evenodd;stroke:#000000;stroke-width:1px;stroke-linecap:butt;stroke-linejoin:miter;stroke-opacity:1"
         d="m 116.07143,436.29078 c 0,27.14285 0,27.14285 0,27.14285"
         id="path4652"
         inkscape:connector-curvature="0" />
    </g>
    <flowRoot
       xml:space="preserve"
       id="flowRoot4662"
       style="font-style:normal;font-variant:normal;font-weight:normal;font-stretch:normal;font-size:20px;font-family:'Zurich BT';-inkscape-font-specification:'Zurich BT';text-align:end;text-anchor:end;opacity:1;fill:#000000;fill-opacity:1;fill-rule:nonzero;stroke:#0000ff;stroke-width:0;stroke-linecap:round;stroke-miterlimit:4;stroke-dasharray:none;stroke-dashoffset:0;stroke-opacity:0.39215686"><flowRegion
         id="flowRegion4664"><rect
           id="rect4666"
           width="67.85714"
           height="44.285713"
           x="489.28571"
           y="455.21936" /></flowRegion><flowPara
         id="flowPara4668">dasdasda</flowPara></flowRoot>    <g
       transform="translate(-177.14286,-302.85714)"
       style="font-style:normal;font-variant:normal;font-weight:normal;font-stretch:normal;font-size:20px;font-family:'Zurich BT';-inkscape-font-specification:'Zurich BT';text-align:start;text-anchor:start;opacity:1;fill:#000000;fill-opacity:1;fill-rule:nonzero;stroke:#0000ff;stroke-width:0;stroke-linecap:round;stroke-miterlimit:4;stroke-dasharray:none;stroke-dashoffset:0;stroke-opacity:0.39215686"
       id="flowRoot4670">
      <path
         d="m 454.96875,397.0385 q 1.66016,0 2.36328,-0.50781 0.70313,-0.50782 0.70313,-1.66993 0,-1.17187 -0.63477,-1.65039 -0.625,-0.48828 -2.43164,-0.48828 l -2.8125,0 0,4.31641 2.8125,0 z m -4.73633,8.26172 0,-14.4043 5.07813,0 q 2.38281,0 3.58398,0.94727 1.20117,0.94726 1.20117,2.8125 0,1.28906 -0.70312,2.1875 -0.69336,0.88867 -1.94336,1.2207 0.94726,0.21484 1.38672,0.67383 0.44922,0.44922 0.67383,1.47461 0.0684,0.32226 0.29296,2.07031 0.23438,1.73828 0.60547,3.01758 l -2.06054,0 q -0.30274,-1.22071 -0.50782,-2.91993 -0.19531,-1.69921 -0.35156,-2.11914 -0.29297,-0.83007 -0.91797,-1.14257 -0.61523,-0.32227 -2.00195,-0.32227 l -2.41211,0 0,6.50391 -1.92383,0 z"
         style=""
         id="path5709" />
      <path
         d="m 470.79883,405.30022 -1.66016,0 q -0.0976,-0.3125 -0.19531,-1.52344 0,-0.0391 0,-0.0586 -0.38086,0.88867 -1.21094,1.35742 -0.82031,0.46875 -2.01172,0.46875 -1.52343,0 -2.4414,-0.83008 -0.91797,-0.83008 -0.91797,-2.19727 0,-1.59179 1.26953,-2.51953 1.26953,-0.9375 3.4668,-0.9375 l 1.74804,0 0,-1.2207 q 0,-0.81055 -0.50781,-1.2207 -0.49805,-0.41993 -1.47461,-0.41993 -0.92773,0 -1.47461,0.45899 -0.53711,0.45898 -0.5664,1.25976 l -1.77735,0 0,-0.15625 q 0,-1.32812 0.94727,-2.03125 0.95703,-0.71289 2.74414,-0.71289 2.08008,0 3.01758,0.74219 0.94726,0.73242 0.94726,2.38281 l 0,6.20118 q 0,0.12695 0.0195,0.39062 0.0293,0.25391 0.0781,0.56641 z m -1.95313,-4.98047 -1.5625,0 q -1.43554,0 -2.22656,0.53711 -0.79102,0.52734 -0.79102,1.48437 0,0.73242 0.53711,1.22071 0.53711,0.47851 1.35743,0.47851 1.29882,0 1.99218,-0.69336 0.69336,-0.70312 0.69336,-2.03125 l 0,-0.99609 z"
         style=""
         id="path5711" />
      <path
         d="m 475.06641,400.1635 q 0,1.91406 0.78125,3.03711 0.79101,1.12304 2.08007,1.12304 1.31836,0 2.10938,-1.03515 0.79101,-1.04492 0.79101,-2.8125 0,-1.91406 -0.78125,-3.03711 -0.78125,-1.12305 -2.08007,-1.12305 -1.31836,0 -2.10938,1.04492 -0.79101,1.03516 -0.79101,2.80274 z m 5.83984,5.13672 -0.0781,-1.48438 q -0.70312,0.91797 -1.46484,1.32813 -0.75195,0.40039 -1.75781,0.40039 -2.07031,0 -3.27149,-1.38672 -1.1914,-1.38672 -1.1914,-3.79883 0,-2.4707 1.16211,-3.85742 1.17187,-1.39649 3.24218,-1.39649 1.0254,0 1.85547,0.42969 0.83985,0.41992 1.42578,1.25 l 0,-5.88867 1.83594,0 0,12.40234 q 0,0.52735 0.0293,1.01563 0.0293,0.48828 0.0879,0.98633 l -1.875,0 z"
         style=""
         id="path5713" />
      <path
         d="m 487.82031,392.93694 -2.16797,0 0,-2.04102 2.16797,0 0,2.04102 z m -2.00195,12.36328 0,-10.03907 1.85547,0 0,10.03907 -1.85547,0 z"
         style=""
         id="path5715" />
      <path
         d="m 498.49414,405.30022 -1.66016,0 q -0.0976,-0.3125 -0.19531,-1.52344 0,-0.0391 0,-0.0586 -0.38086,0.88867 -1.21094,1.35742 -0.82031,0.46875 -2.01171,0.46875 -1.52344,0 -2.44141,-0.83008 -0.91797,-0.83008 -0.91797,-2.19727 0,-1.59179 1.26953,-2.51953 1.26953,-0.9375 3.4668,-0.9375 l 1.74805,0 0,-1.2207 q 0,-0.81055 -0.50782,-1.2207 -0.49804,-0.41993 -1.47461,-0.41993 -0.92773,0 -1.47461,0.45899 -0.53711,0.45898 -0.5664,1.25976 l -1.77735,0 0,-0.15625 q 0,-1.32812 0.94727,-2.03125 0.95703,-0.71289 2.74414,-0.71289 2.08008,0 3.01758,0.74219 0.94726,0.73242 0.94726,2.38281 l 0,6.20118 q 0,0.12695 0.0195,0.39062 0.0293,0.25391 0.0781,0.56641 z m -1.95312,-4.98047 -1.5625,0 q -1.43555,0 -2.22657,0.53711 -0.79101,0.52734 -0.79101,1.48437 0,0.73242 0.53711,1.22071 0.53711,0.47851 1.35742,0.47851 1.29883,0 1.99219,-0.69336 0.69336,-0.70312 0.69336,-2.03125 l 0,-0.99609 z"
         style=""
         id="path5717" />
      <path
         d="m 500.05664,395.26115 1.70898,0 0,-2.06054 1.83594,-0.625 0,2.68554 2.23633,0 0,1.31836 -2.23633,0 0,6.16211 q 0,0.78125 0.25391,1.03516 0.26367,0.24414 1.02539,0.24414 0.19531,0 0.41992,-0.0293 0.22461,-0.0391 0.49805,-0.10742 l 0,1.39649 q -0.44922,0.11718 -0.81055,0.17578 -0.36133,0.0684 -0.64453,0.0684 -1.41602,0 -2.00195,-0.48829 -0.57618,-0.48828 -0.57618,-1.64062 l 0,-6.81641 -1.70898,0 0,-1.31836 z"
         style=""
         id="path5719" />
      <path
         d="m 509.77344,392.93694 -2.16797,0 0,-2.04102 2.16797,0 0,2.04102 z m -2.00196,12.36328 0,-10.03907 1.85547,0 0,10.03907 -1.85547,0 z"
         style=""
         id="path5721" />
      <path
         d="m 517.22461,396.36467 q -1.42578,0 -2.26563,1.08398 -0.83007,1.07422 -0.83007,2.92969 0,1.79688 0.80078,2.7832 0.80078,0.97657 2.25586,0.97657 1.45507,0 2.27539,-1.03516 0.83008,-1.04492 0.83008,-2.88086 0,-1.83594 -0.80079,-2.8418 -0.80078,-1.01562 -2.26562,-1.01562 z m -5,4.11133 q 0,-2.51953 1.33789,-3.97461 1.34766,-1.46485 3.66211,-1.46485 2.34375,0 3.64258,1.36719 1.29883,1.35742 1.29883,3.79883 0,2.5293 -1.34766,3.93555 -1.33789,1.40625 -3.76953,1.40625 -2.23633,0 -3.53516,-1.35742 -1.28906,-1.35743 -1.28906,-3.71094 z"
         style=""
         id="path5723" />
      <path
         d="m 526.69727,396.90178 q 0.34179,-0.81055 1.18164,-1.2793 0.84961,-0.47851 1.96289,-0.47851 0.99609,0 1.8164,0.36132 0.83008,0.36133 1.29883,0.9961 0.26367,0.35156 0.37109,0.84961 0.11719,0.49804 0.11719,1.70898 l 0,6.24024 -1.8457,0 0,-6.33789 q 0,-1.26954 -0.54688,-1.86524 -0.53711,-0.5957 -1.68945,-0.5957 -1.17187,0 -1.92383,0.63476 -0.74218,0.63477 -0.74218,1.64063 l 0,6.52344 -1.85547,0 0,-7.97852 q 0,-0.55664 -0.0195,-1.06445 -0.0195,-0.51758 -0.0586,-0.9961 l 1.875,0 0.0586,1.64063 z"
         style=""
         id="path5725" />
    </g>
    <g
       transform="translate(-177.14286,-277.61856)"
       style="font-style:normal;font-variant:normal;font-weight:normal;font-stretch:normal;font-size:20px;font-family:'Zurich BT';-inkscape-font-specification:'Zurich BT';text-align:start;text-anchor:start;opacity:1;fill:#000000;fill-opacity:1;fill-rule:nonzero;stroke:#0000ff;stroke-width:0;stroke-linecap:round;stroke-miterlimit:4;stroke-dasharray:none;stroke-dashoffset:0;stroke-opacity:0.39215686"
       id="flowRoot4680">
      <path
         d="m 454.96875,397.0385 q 1.66016,0 2.36328,-0.50781 0.70313,-0.50782 0.70313,-1.66993 0,-1.17187 -0.63477,-1.65039 -0.625,-0.48828 -2.43164,-0.48828 l -2.8125,0 0,4.31641 2.8125,0 z m -4.73633,8.26172 0,-14.4043 5.07813,0 q 2.38281,0 3.58398,0.94727 1.20117,0.94726 1.20117,2.8125 0,1.28906 -0.70312,2.1875 -0.69336,0.88867 -1.94336,1.2207 0.94726,0.21484 1.38672,0.67383 0.44922,0.44922 0.67383,1.47461 0.0684,0.32226 0.29296,2.07031 0.23438,1.73828 0.60547,3.01758 l -2.06054,0 q -0.30274,-1.22071 -0.50782,-2.91993 -0.19531,-1.69921 -0.35156,-2.11914 -0.29297,-0.83007 -0.91797,-1.14257 -0.61523,-0.32227 -2.00195,-0.32227 l -2.41211,0 0,6.50391 -1.92383,0 z"
         style=""
         id="path5728" />
      <path
         d="m 470.79883,405.30022 -1.66016,0 q -0.0976,-0.3125 -0.19531,-1.52344 0,-0.0391 0,-0.0586 -0.38086,0.88867 -1.21094,1.35742 -0.82031,0.46875 -2.01172,0.46875 -1.52343,0 -2.4414,-0.83008 -0.91797,-0.83008 -0.91797,-2.19727 0,-1.59179 1.26953,-2.51953 1.26953,-0.9375 3.4668,-0.9375 l 1.74804,0 0,-1.2207 q 0,-0.81055 -0.50781,-1.2207 -0.49805,-0.41993 -1.47461,-0.41993 -0.92773,0 -1.47461,0.45899 -0.53711,0.45898 -0.5664,1.25976 l -1.77735,0 0,-0.15625 q 0,-1.32812 0.94727,-2.03125 0.95703,-0.71289 2.74414,-0.71289 2.08008,0 3.01758,0.74219 0.94726,0.73242 0.94726,2.38281 l 0,6.20118 q 0,0.12695 0.0195,0.39062 0.0293,0.25391 0.0781,0.56641 z m -1.95313,-4.98047 -1.5625,0 q -1.43554,0 -2.22656,0.53711 -0.79102,0.52734 -0.79102,1.48437 0,0.73242 0.53711,1.22071 0.53711,0.47851 1.35743,0.47851 1.29882,0 1.99218,-0.69336 0.69336,-0.70312 0.69336,-2.03125 l 0,-0.99609 z"
         style=""
         id="path5730" />
      <path
         d="m 475.75,392.93694 -2.16797,0 0,-2.04102 2.16797,0 0,2.04102 z m -2.00195,12.36328 0,-10.03907 1.85547,0 0,10.03907 -1.85547,0 z"
         style=""
         id="path5732" />
      <path
         d="m 480.64258,396.90178 q 0.34179,-0.81055 1.18164,-1.2793 0.84961,-0.47851 1.96289,-0.47851 0.99609,0 1.81641,0.36132 0.83007,0.36133 1.29882,0.9961 0.26368,0.35156 0.3711,0.84961 0.11718,0.49804 0.11718,1.70898 l 0,6.24024 -1.8457,0 0,-6.33789 q 0,-1.26954 -0.54687,-1.86524 -0.53711,-0.5957 -1.68946,-0.5957 -1.17187,0 -1.92382,0.63476 -0.74219,0.63477 -0.74219,1.64063 l 0,6.52344 -1.85547,0 0,-7.97852 q 0,-0.55664 -0.0195,-1.06445 -0.0195,-0.51758 -0.0586,-0.9961 l 1.875,0 0.0586,1.64063 z"
         style=""
         id="path5734" />
    </g>
    <g
       transform="translate(-339.71429,-167.47158)"
       style="font-style:normal;font-variant:normal;font-weight:normal;font-stretch:normal;font-size:20px;font-family:'Zurich BT';-inkscape-font-specification:'Zurich BT';text-align:start;text-anchor:start;opacity:1;fill:#000000;fill-opacity:1;fill-rule:nonzero;stroke:#0000ff;stroke-width:0;stroke-linecap:round;stroke-miterlimit:4;stroke-dasharray:none;stroke-dashoffset:0;stroke-opacity:0.39215686"
       id="flowRoot4696">
      <path
         d="m 450.23242,405.30022 0,-14.4043 8.37891,0 0,1.72852 -6.45508,0 0,4.41406 6.11328,0 0,1.71875 -6.11328,0 0,6.54297 -1.92383,0 z"
         id="path5764"
         inkscape:connector-curvature="0" />
      <path
         d="m 461.78516,399.28459 5.17578,0 0,-0.22461 q 0,-1.25 -0.69336,-2.01172 -0.6836,-0.77148 -1.77735,-0.77148 -1.20117,0 -1.95312,0.83008 -0.75195,0.83008 -0.75195,2.17773 z m 6.875,2.79297 q -0.01,1.5625 -1.12305,2.51953 -1.10352,0.94727 -2.92969,0.94727 -2.34375,0 -3.55469,-1.28907 -1.21093,-1.28906 -1.21093,-3.77929 0,-2.64649 1.1914,-4.05274 1.20117,-1.40625 3.42774,-1.40625 2.04101,0 3.21289,1.17188 1.17187,1.16211 1.17187,3.17383 0,0.48828 -0.01,0.74218 -0.01,0.25391 -0.0293,0.47852 l -7.11914,0 0,0.19531 0,0.40039 q 0,1.42578 0.73242,2.20703 0.73242,0.77149 2.07031,0.77149 1.10352,0 1.74805,-0.55664 0.6543,-0.56641 0.67383,-1.52344 l 1.74805,0 z"
         id="path5766"
         inkscape:connector-curvature="0" />
      <path
         d="m 471.38477,405.30022 0,-8.45703 q 0,-0.49805 -0.0195,-0.85938 -0.01,-0.36133 -0.0391,-0.72266 l 1.85547,0 0.0391,1.92383 q 0.27344,-0.95703 0.97657,-1.43554 0.71289,-0.48829 1.8457,-0.48829 0.20508,0 0.39062,0.0195 0.19532,0.01 0.3711,0.0488 l 0,1.72852 q -0.30274,-0.0586 -0.55664,-0.0879 -0.25391,-0.0293 -0.44922,-0.0293 -1.24024,0 -1.91406,0.70313 -0.66407,0.70312 -0.66407,2.01172 l 0,5.64453 -1.83593,0 z"
         id="path5768"
         inkscape:connector-curvature="0" />
      <path
         d="m 477.43945,395.26115 1.70899,0 0,-2.06054 1.83593,-0.625 0,2.68554 2.23633,0 0,1.31836 -2.23633,0 0,6.16211 q 0,0.78125 0.25391,1.03516 0.26367,0.24414 1.02539,0.24414 0.19531,0 0.41992,-0.0293 0.22461,-0.0391 0.49805,-0.10742 l 0,1.39649 q -0.44922,0.11718 -0.81055,0.17578 -0.36132,0.0684 -0.64453,0.0684 -1.41601,0 -2.00195,-0.48829 -0.57617,-0.48828 -0.57617,-1.64062 l 0,-6.81641 -1.70899,0 0,-1.31836 z"
         id="path5770"
         inkscape:connector-curvature="0" />
      <path
         d="m 487.15625,392.93694 -2.16797,0 0,-2.04102 2.16797,0 0,2.04102 z m -2.00195,12.36328 0,-10.03907 1.85547,0 0,10.03907 -1.85547,0 z"
         id="path5772"
         inkscape:connector-curvature="0" />
      <path
         d="m 492.00977,405.30022 -1.85547,0 0,-14.4043 1.85547,0 0,14.4043 z"
         id="path5774"
         inkscape:connector-curvature="0" />
      <path
         d="m 497.15625,392.93694 -2.16797,0 0,-2.04102 2.16797,0 0,2.04102 z m -2.00195,12.36328 0,-10.03907 1.85547,0 0,10.03907 -1.85547,0 z"
         id="path5776"
         inkscape:connector-curvature="0" />
      <path
         d="m 499.2168,405.30022 0,-1.85547 5.35156,-6.80664 -5.01953,0 0,-1.37696 7.06054,0 0,1.6211 -5.49804,7.00195 5.47851,0 0,1.41602 -7.37304,0 z"
         id="path5778"
         inkscape:connector-curvature="0" />
      <path
         d="m 510.26172,399.28459 5.17578,0 0,-0.22461 q 0,-1.25 -0.69336,-2.01172 -0.68359,-0.77148 -1.77734,-0.77148 -1.20118,0 -1.95313,0.83008 -0.75195,0.83008 -0.75195,2.17773 z m 6.875,2.79297 q -0.01,1.5625 -1.12305,2.51953 -1.10351,0.94727 -2.92969,0.94727 -2.34375,0 -3.55468,-1.28907 -1.21094,-1.28906 -1.21094,-3.77929 0,-2.64649 1.19141,-4.05274 1.20117,-1.40625 3.42773,-1.40625 2.04102,0 3.21289,1.17188 1.17188,1.16211 1.17188,3.17383 0,0.48828 -0.01,0.74218 -0.01,0.25391 -0.0293,0.47852 l -7.11914,0 0,0.19531 0,0.40039 q 0,1.42578 0.73242,2.20703 0.73243,0.77149 2.07032,0.77149 1.10351,0 1.74804,-0.55664 0.6543,-0.56641 0.67383,-1.52344 l 1.74805,0 z"
         id="path5780"
         inkscape:connector-curvature="0" />
      <path
         d="m 519.86133,405.30022 0,-8.45703 q 0,-0.49805 -0.0195,-0.85938 -0.01,-0.36133 -0.0391,-0.72266 l 1.85547,0 0.0391,1.92383 q 0.27343,-0.95703 0.97656,-1.43554 0.71289,-0.48829 1.8457,-0.48829 0.20508,0 0.39063,0.0195 0.19531,0.01 0.37109,0.0488 l 0,1.72852 q -0.30273,-0.0586 -0.55664,-0.0879 -0.25391,-0.0293 -0.44922,-0.0293 -1.24023,0 -1.91406,0.70313 -0.66406,0.70312 -0.66406,2.01172 l 0,5.64453 -1.83594,0 z"
         id="path5782"
         inkscape:connector-curvature="0" />
      <path
         d="m 526.54102,402.28264 1.85546,0 0,0.0391 q 0,0.82031 0.57618,1.31836 0.58593,0.49805 1.55273,0.49805 0.9375,0 1.51367,-0.43946 0.58594,-0.43945 0.58594,-1.14257 0,-0.51758 -0.29297,-0.83985 -0.29297,-0.32226 -0.91797,-0.47851 l -2.1289,-0.49805 q -1.34766,-0.3125 -2.01172,-0.9668 -0.6543,-0.65429 -0.6543,-1.65039 0,-1.37695 1.11328,-2.22656 1.12305,-0.85938 2.94922,-0.85938 1.68945,0 2.66602,0.7129 0.97656,0.70312 0.97656,1.93359 0,0.11719 -0.01,0.18555 0,0.0586 -0.01,0.10742 l -1.84571,0 0,-0.0781 q 0,-0.72265 -0.51757,-1.14258 -0.50782,-0.41992 -1.39649,-0.41992 -0.86914,0 -1.43555,0.41992 -0.5664,0.41993 -0.5664,1.04493 0,0.48828 0.3418,0.79101 0.34179,0.29297 1.13281,0.50781 l 2.28515,0.625 q 1.18164,0.3125 1.74805,0.97657 0.56641,0.66406 0.56641,1.71875 0,1.42578 -1.08399,2.27539 -1.08398,0.84961 -2.92968,0.84961 -2.09961,0 -3.08594,-0.73242 -0.97656,-0.73243 -0.97656,-2.29493 l 0,-0.23437 z"
         id="path5784"
         inkscape:connector-curvature="0" />
    </g>
    <g
       transform="translate(-338.3764,-212.13728)"
       style="font-style:normal;font-variant:normal;font-weight:normal;font-stretch:normal;font-size:20px;font-family:'Zurich BT';-inkscape-font-specification:'Zurich BT';text-align:start;text-anchor:start;opacity:1;fill:#000000;fill-opacity:1;fill-rule:nonzero;stroke:#0000ff;stroke-width:0;stroke-linecap:round;stroke-miterlimit:4;stroke-dasharray:none;stroke-dashoffset:0;stroke-opacity:0.39215686"
       id="flowRoot4704">
      <path
         d="m 452.81055,405.30022 -3.91602,-14.4043 1.89453,0 3.10547,11.52344 3.47656,-11.52344 2.17774,0 3.16406,11.78711 3.24219,-11.78711 1.83594,0 -4.16016,14.4043 -2.02149,0 -3.26171,-12.25586 -3.65235,12.25586 -1.88476,0 z"
         id="path5796"
         inkscape:connector-curvature="0" />
      <path
         d="m 476.26758,405.30022 -1.66016,0 q -0.0976,-0.3125 -0.19531,-1.52344 0,-0.0391 0,-0.0586 -0.38086,0.88867 -1.21094,1.35742 -0.82031,0.46875 -2.01172,0.46875 -1.52343,0 -2.4414,-0.83008 -0.91797,-0.83008 -0.91797,-2.19727 0,-1.59179 1.26953,-2.51953 1.26953,-0.9375 3.4668,-0.9375 l 1.74804,0 0,-1.2207 q 0,-0.81055 -0.50781,-1.2207 -0.49805,-0.41993 -1.47461,-0.41993 -0.92773,0 -1.47461,0.45899 -0.53711,0.45898 -0.5664,1.25976 l -1.77735,0 0,-0.15625 q 0,-1.32812 0.94727,-2.03125 0.95703,-0.71289 2.74414,-0.71289 2.08008,0 3.01758,0.74219 0.94726,0.73242 0.94726,2.38281 l 0,6.20118 q 0,0.12695 0.0195,0.39062 0.0293,0.25391 0.0781,0.56641 z m -1.95313,-4.98047 -1.5625,0 q -1.43554,0 -2.22656,0.53711 -0.79102,0.52734 -0.79102,1.48437 0,0.73242 0.53711,1.22071 0.53711,0.47851 1.35743,0.47851 1.29882,0 1.99218,-0.69336 0.69336,-0.70312 0.69336,-2.03125 l 0,-0.99609 z"
         id="path5798"
         inkscape:connector-curvature="0" />
      <path
         d="m 478.45508,402.28264 1.85547,0 0,0.0391 q 0,0.82031 0.57617,1.31836 0.58594,0.49805 1.55273,0.49805 0.9375,0 1.51367,-0.43946 0.58594,-0.43945 0.58594,-1.14257 0,-0.51758 -0.29297,-0.83985 -0.29297,-0.32226 -0.91797,-0.47851 l -2.1289,-0.49805 q -1.34766,-0.3125 -2.01172,-0.9668 -0.6543,-0.65429 -0.6543,-1.65039 0,-1.37695 1.11328,-2.22656 1.12305,-0.85938 2.94922,-0.85938 1.68946,0 2.66602,0.7129 0.97656,0.70312 0.97656,1.93359 0,0.11719 -0.01,0.18555 0,0.0586 -0.01,0.10742 l -1.8457,0 0,-0.0781 q 0,-0.72265 -0.51758,-1.14258 -0.50781,-0.41992 -1.39649,-0.41992 -0.86914,0 -1.43554,0.41992 -0.56641,0.41993 -0.56641,1.04493 0,0.48828 0.3418,0.79101 0.34179,0.29297 1.13281,0.50781 l 2.28516,0.625 q 1.18164,0.3125 1.74804,0.97657 0.56641,0.66406 0.56641,1.71875 0,1.42578 -1.08398,2.27539 -1.08399,0.84961 -2.92969,0.84961 -2.09961,0 -3.08594,-0.73242 -0.97656,-0.73243 -0.97656,-2.29493 l 0,-0.23437 z"
         id="path5800"
         inkscape:connector-curvature="0" />
      <path
         d="m 487.67383,395.26115 1.70898,0 0,-2.06054 1.83594,-0.625 0,2.68554 2.23633,0 0,1.31836 -2.23633,0 0,6.16211 q 0,0.78125 0.25391,1.03516 0.26367,0.24414 1.02539,0.24414 0.19531,0 0.41992,-0.0293 0.22461,-0.0391 0.49805,-0.10742 l 0,1.39649 q -0.44922,0.11718 -0.81055,0.17578 -0.36133,0.0684 -0.64453,0.0684 -1.41602,0 -2.00196,-0.48829 -0.57617,-0.48828 -0.57617,-1.64062 l 0,-6.81641 -1.70898,0 0,-1.31836 z"
         id="path5802"
         inkscape:connector-curvature="0" />
      <path
         d="m 496.74609,399.28459 5.17578,0 0,-0.22461 q 0,-1.25 -0.69335,-2.01172 -0.6836,-0.77148 -1.77735,-0.77148 -1.20117,0 -1.95312,0.83008 -0.75196,0.83008 -0.75196,2.17773 z m 6.875,2.79297 q -0.01,1.5625 -1.12304,2.51953 -1.10352,0.94727 -2.92969,0.94727 -2.34375,0 -3.55469,-1.28907 -1.21094,-1.28906 -1.21094,-3.77929 0,-2.64649 1.19141,-4.05274 1.20117,-1.40625 3.42773,-1.40625 2.04102,0 3.2129,1.17188 1.17187,1.16211 1.17187,3.17383 0,0.48828 -0.01,0.74218 -0.01,0.25391 -0.0293,0.47852 l -7.11914,0 0,0.19531 0,0.40039 q 0,1.42578 0.73242,2.20703 0.73242,0.77149 2.07031,0.77149 1.10352,0 1.74805,-0.55664 0.6543,-0.56641 0.67383,-1.52344 l 1.74804,0 z"
         id="path5804"
         inkscape:connector-curvature="0" />
      <path
         d="m 514.13867,395.26115 2.28516,8.05664 2.55859,-8.05664 1.79688,0 -3.47657,10.03907 -1.94336,0 -2.42187,-8.4375 -2.63672,8.4375 -1.96289,0 -3.29102,-10.03907 1.81641,0 2.5,8.05664 2.51953,-8.05664 2.25586,0 z"
         id="path5806"
         inkscape:connector-curvature="0" />
      <path
         d="m 530.29102,405.30022 -1.66016,0 q -0.0977,-0.3125 -0.19531,-1.52344 0,-0.0391 0,-0.0586 -0.38086,0.88867 -1.21094,1.35742 -0.82031,0.46875 -2.01172,0.46875 -1.52344,0 -2.44141,-0.83008 -0.91796,-0.83008 -0.91796,-2.19727 0,-1.59179 1.26953,-2.51953 1.26953,-0.9375 3.46679,-0.9375 l 1.74805,0 0,-1.2207 q 0,-0.81055 -0.50781,-1.2207 -0.49805,-0.41993 -1.47461,-0.41993 -0.92774,0 -1.47461,0.45899 -0.53711,0.45898 -0.56641,1.25976 l -1.77734,0 0,-0.15625 q 0,-1.32812 0.94726,-2.03125 0.95704,-0.71289 2.74415,-0.71289 2.08007,0 3.01757,0.74219 0.94727,0.73242 0.94727,2.38281 l 0,6.20118 q 0,0.12695 0.0195,0.39062 0.0293,0.25391 0.0781,0.56641 z m -1.95313,-4.98047 -1.5625,0 q -1.43555,0 -2.22656,0.53711 -0.79102,0.52734 -0.79102,1.48437 0,0.73242 0.53711,1.22071 0.53711,0.47851 1.35742,0.47851 1.29883,0 1.99219,-0.69336 0.69336,-0.70312 0.69336,-2.03125 l 0,-0.99609 z"
         id="path5808"
         inkscape:connector-curvature="0" />
      <path
         d="m 531.85352,395.26115 1.70898,0 0,-2.06054 1.83594,-0.625 0,2.68554 2.23633,0 0,1.31836 -2.23633,0 0,6.16211 q 0,0.78125 0.2539,1.03516 0.26368,0.24414 1.02539,0.24414 0.19532,0 0.41993,-0.0293 0.22461,-0.0391 0.49804,-0.10742 l 0,1.39649 q -0.44922,0.11718 -0.81054,0.17578 -0.36133,0.0684 -0.64454,0.0684 -1.41601,0 -2.00195,-0.48829 -0.57617,-0.48828 -0.57617,-1.64062 l 0,-6.81641 -1.70898,0 0,-1.31836 z"
         id="path5810"
         inkscape:connector-curvature="0" />
      <path
         d="m 540.92578,399.28459 5.17578,0 0,-0.22461 q 0,-1.25 -0.69336,-2.01172 -0.68359,-0.77148 -1.77734,-0.77148 -1.20117,0 -1.95313,0.83008 -0.75195,0.83008 -0.75195,2.17773 z m 6.875,2.79297 q -0.01,1.5625 -1.12305,2.51953 -1.10351,0.94727 -2.92968,0.94727 -2.34375,0 -3.55469,-1.28907 -1.21094,-1.28906 -1.21094,-3.77929 0,-2.64649 1.19141,-4.05274 1.20117,-1.40625 3.42773,-1.40625 2.04102,0 3.21289,1.17188 1.17188,1.16211 1.17188,3.17383 0,0.48828 -0.01,0.74218 -0.01,0.25391 -0.0293,0.47852 l -7.11915,0 0,0.19531 0,0.40039 q 0,1.42578 0.73243,2.20703 0.73242,0.77149 2.07031,0.77149 1.10351,0 1.74805,-0.55664 0.65429,-0.56641 0.67382,-1.52344 l 1.74805,0 z"
         id="path5812"
         inkscape:connector-curvature="0" />
      <path
         d="m 550.52539,405.30022 0,-8.45703 q 0,-0.49805 -0.0195,-0.85938 -0.01,-0.36133 -0.0391,-0.72266 l 1.85547,0 0.0391,1.92383 q 0.27344,-0.95703 0.97656,-1.43554 0.71289,-0.48829 1.8457,-0.48829 0.20508,0 0.39063,0.0195 0.19531,0.01 0.37109,0.0488 l 0,1.72852 q -0.30273,-0.0586 -0.55664,-0.0879 -0.2539,-0.0293 -0.44922,-0.0293 -1.24023,0 -1.91406,0.70313 -0.66406,0.70312 -0.66406,2.01172 l 0,5.64453 -1.83594,0 z"
         id="path5814"
         inkscape:connector-curvature="0" />
    </g>
    <g
       transform="translate(-338.3764,-236.47019)"
       style="font-style:normal;font-variant:normal;font-weight:normal;font-stretch:normal;font-size:20px;font-family:'Zurich BT';-inkscape-font-specification:'Zurich BT';text-align:start;text-anchor:start;opacity:1;fill:#000000;fill-opacity:1;fill-rule:nonzero;stroke:#0000ff;stroke-width:0;stroke-linecap:round;stroke-miterlimit:4;stroke-dasharray:none;stroke-dashoffset:0;stroke-opacity:0.39215686"
       id="flowRoot4712">
      <path
         d="m 452.81055,405.30022 -3.91602,-14.4043 1.89453,0 3.10547,11.52344 3.47656,-11.52344 2.17774,0 3.16406,11.78711 3.24219,-11.78711 1.83594,0 -4.16016,14.4043 -2.02149,0 -3.26171,-12.25586 -3.65235,12.25586 -1.88476,0 z"
         id="path5817"
         inkscape:connector-curvature="0" />
      <path
         d="m 476.26758,405.30022 -1.66016,0 q -0.0976,-0.3125 -0.19531,-1.52344 0,-0.0391 0,-0.0586 -0.38086,0.88867 -1.21094,1.35742 -0.82031,0.46875 -2.01172,0.46875 -1.52343,0 -2.4414,-0.83008 -0.91797,-0.83008 -0.91797,-2.19727 0,-1.59179 1.26953,-2.51953 1.26953,-0.9375 3.4668,-0.9375 l 1.74804,0 0,-1.2207 q 0,-0.81055 -0.50781,-1.2207 -0.49805,-0.41993 -1.47461,-0.41993 -0.92773,0 -1.47461,0.45899 -0.53711,0.45898 -0.5664,1.25976 l -1.77735,0 0,-0.15625 q 0,-1.32812 0.94727,-2.03125 0.95703,-0.71289 2.74414,-0.71289 2.08008,0 3.01758,0.74219 0.94726,0.73242 0.94726,2.38281 l 0,6.20118 q 0,0.12695 0.0195,0.39062 0.0293,0.25391 0.0781,0.56641 z m -1.95313,-4.98047 -1.5625,0 q -1.43554,0 -2.22656,0.53711 -0.79102,0.52734 -0.79102,1.48437 0,0.73242 0.53711,1.22071 0.53711,0.47851 1.35743,0.47851 1.29882,0 1.99218,-0.69336 0.69336,-0.70312 0.69336,-2.03125 l 0,-0.99609 z"
         id="path5819"
         inkscape:connector-curvature="0" />
      <path
         d="m 477.83008,395.26115 1.70898,0 0,-2.06054 1.83594,-0.625 0,2.68554 2.23633,0 0,1.31836 -2.23633,0 0,6.16211 q 0,0.78125 0.25391,1.03516 0.26367,0.24414 1.02539,0.24414 0.19531,0 0.41992,-0.0293 0.22461,-0.0391 0.49805,-0.10742 l 0,1.39649 q -0.44922,0.11718 -0.81055,0.17578 -0.36133,0.0684 -0.64453,0.0684 -1.41602,0 -2.00196,-0.48829 -0.57617,-0.48828 -0.57617,-1.64062 l 0,-6.81641 -1.70898,0 0,-1.31836 z"
         id="path5821"
         inkscape:connector-curvature="0" />
      <path
         d="m 486.90234,399.28459 5.17578,0 0,-0.22461 q 0,-1.25 -0.69335,-2.01172 -0.6836,-0.77148 -1.77735,-0.77148 -1.20117,0 -1.95312,0.83008 -0.75196,0.83008 -0.75196,2.17773 z m 6.875,2.79297 q -0.01,1.5625 -1.12304,2.51953 -1.10352,0.94727 -2.92969,0.94727 -2.34375,0 -3.55469,-1.28907 -1.21094,-1.28906 -1.21094,-3.77929 0,-2.64649 1.19141,-4.05274 1.20117,-1.40625 3.42773,-1.40625 2.04102,0 3.2129,1.17188 1.17187,1.16211 1.17187,3.17383 0,0.48828 -0.01,0.74218 -0.01,0.25391 -0.0293,0.47852 l -7.11914,0 0,0.19531 0,0.40039 q 0,1.42578 0.73242,2.20703 0.73242,0.77149 2.07031,0.77149 1.10352,0 1.74805,-0.55664 0.6543,-0.56641 0.67383,-1.52344 l 1.74804,0 z"
         id="path5823"
         inkscape:connector-curvature="0" />
      <path
         d="m 496.50195,405.30022 0,-8.45703 q 0,-0.49805 -0.0195,-0.85938 -0.01,-0.36133 -0.0391,-0.72266 l 1.85547,0 0.0391,1.92383 q 0.27344,-0.95703 0.97656,-1.43554 0.71289,-0.48829 1.84571,-0.48829 0.20507,0 0.39062,0.0195 0.19531,0.01 0.37109,0.0488 l 0,1.72852 q -0.30273,-0.0586 -0.55664,-0.0879 -0.2539,-0.0293 -0.44921,-0.0293 -1.24024,0 -1.91407,0.70313 -0.66406,0.70312 -0.66406,2.01172 l 0,5.64453 -1.83594,0 z"
         id="path5825"
         inkscape:connector-curvature="0" />
    </g>
    <g
       transform="translate(-31.428574,-33.57143)"
       style="font-style:normal;font-variant:normal;font-weight:normal;font-stretch:normal;font-size:20px;font-family:'Zurich BT';-inkscape-font-specification:'Zurich BT';text-align:start;text-anchor:start;opacity:1;fill:#000000;fill-opacity:1;fill-rule:nonzero;stroke:#0000ff;stroke-width:0;stroke-linecap:round;stroke-miterlimit:4;stroke-dasharray:none;stroke-dashoffset:0;stroke-opacity:0.39215686"
       id="flowRoot4728">
      <path
         d="m 450.23242,405.30022 0,-14.4043 1.9043,0 0,12.68555 6.55273,0 0,1.71875 -8.45703,0 z"
         style=""
         id="path5650" />
      <path
         d="m 461.88281,399.28459 5.17578,0 0,-0.22461 q 0,-1.25 -0.69336,-2.01172 -0.68359,-0.77148 -1.77734,-0.77148 -1.20117,0 -1.95312,0.83008 -0.75196,0.83008 -0.75196,2.17773 z m 6.875,2.79297 q -0.01,1.5625 -1.12304,2.51953 -1.10352,0.94727 -2.92969,0.94727 -2.34375,0 -3.55469,-1.28907 -1.21094,-1.28906 -1.21094,-3.77929 0,-2.64649 1.19141,-4.05274 1.20117,-1.40625 3.42773,-1.40625 2.04102,0 3.21289,1.17188 1.17188,1.16211 1.17188,3.17383 0,0.48828 -0.01,0.74218 -0.01,0.25391 -0.0293,0.47852 l -7.11914,0 0,0.19531 0,0.40039 q 0,1.42578 0.73242,2.20703 0.73242,0.77149 2.07031,0.77149 1.10352,0 1.74805,-0.55664 0.65429,-0.56641 0.67383,-1.52344 l 1.74804,0 z"
         style=""
         id="path5652" />
      <path
         d="m 479.23633,405.30022 -1.66016,0 q -0.0976,-0.3125 -0.19531,-1.52344 0,-0.0391 0,-0.0586 -0.38086,0.88867 -1.21094,1.35742 -0.82031,0.46875 -2.01172,0.46875 -1.52343,0 -2.4414,-0.83008 -0.91797,-0.83008 -0.91797,-2.19727 0,-1.59179 1.26953,-2.51953 1.26953,-0.9375 3.4668,-0.9375 l 1.74804,0 0,-1.2207 q 0,-0.81055 -0.50781,-1.2207 -0.49805,-0.41993 -1.47461,-0.41993 -0.92773,0 -1.47461,0.45899 -0.53711,0.45898 -0.5664,1.25976 l -1.77735,0 0,-0.15625 q 0,-1.32812 0.94727,-2.03125 0.95703,-0.71289 2.74414,-0.71289 2.08008,0 3.01758,0.74219 0.94726,0.73242 0.94726,2.38281 l 0,6.20118 q 0,0.12695 0.0195,0.39062 0.0293,0.25391 0.0781,0.56641 z m -1.95313,-4.98047 -1.5625,0 q -1.43554,0 -2.22656,0.53711 -0.79102,0.52734 -0.79102,1.48437 0,0.73242 0.53711,1.22071 0.53711,0.47851 1.35743,0.47851 1.29882,0 1.99218,-0.69336 0.69336,-0.70312 0.69336,-2.03125 l 0,-0.99609 z"
         style=""
         id="path5654" />
      <path
         d="m 489.93945,401.92131 q -0.11718,1.75781 -1.12304,2.69531 -1.00586,0.92774 -2.79297,0.92774 -2.13867,0 -3.30078,-1.3086 -1.16211,-1.31836 -1.16211,-3.74023 0,-2.58789 1.21093,-4.0332 1.22071,-1.44532 3.38868,-1.44532 1.68945,0 2.69531,0.91797 1.00586,0.90821 1.00586,2.44141 l 0,0.0391 -1.79688,0 q 0,-0.89844 -0.58593,-1.49414 -0.58594,-0.60547 -1.45508,-0.60547 -1.18164,0 -1.86524,1.00586 -0.67383,0.99609 -0.67383,2.73438 0,2.02148 0.625,3.05664 0.63477,1.02539 1.875,1.02539 0.9668,0 1.55274,-0.59571 0.58594,-0.60546 0.60547,-1.62109 l 1.79687,0 z"
         style=""
         id="path5656" />
      <path
         d="m 494.39258,396.92131 q 0.34179,-0.81055 1.1914,-1.28906 0.84961,-0.48828 1.95313,-0.48828 0.99609,0 1.81641,0.36132 0.83007,0.36133 1.29882,0.9961 0.26368,0.35156 0.3711,0.85937 0.11718,0.50782 0.11718,1.71875 l 0,6.22071 -1.8457,0 0,-6.33789 q 0,-1.26954 -0.54687,-1.86524 -0.53711,-0.5957 -1.68946,-0.5957 -1.17187,0 -1.92382,0.63476 -0.74219,0.63477 -0.74219,1.64063 l 0,6.52344 -1.85547,0 0,-14.4043 1.85547,0 0,6.02539 z"
         style=""
         id="path5658" />
    </g>
    <g
       transform="translate(-31.428574,-11.433229)"
       style="font-style:normal;font-variant:normal;font-weight:normal;font-stretch:normal;font-size:20px;font-family:'Zurich BT';-inkscape-font-specification:'Zurich BT';text-align:start;text-anchor:start;opacity:1;fill:#000000;fill-opacity:1;fill-rule:nonzero;stroke:#0000ff;stroke-width:0;stroke-linecap:round;stroke-miterlimit:4;stroke-dasharray:none;stroke-dashoffset:0;stroke-opacity:0.39215686"
       id="flowRoot4740">
      <path
         d="m 454.96875,397.0385 q 1.66016,0 2.36328,-0.50781 0.70313,-0.50782 0.70313,-1.66993 0,-1.17187 -0.63477,-1.65039 -0.625,-0.48828 -2.43164,-0.48828 l -2.8125,0 0,4.31641 2.8125,0 z m -4.73633,8.26172 0,-14.4043 5.07813,0 q 2.38281,0 3.58398,0.94727 1.20117,0.94726 1.20117,2.8125 0,1.28906 -0.70312,2.1875 -0.69336,0.88867 -1.94336,1.2207 0.94726,0.21484 1.38672,0.67383 0.44922,0.44922 0.67383,1.47461 0.0684,0.32226 0.29296,2.07031 0.23438,1.73828 0.60547,3.01758 l -2.06054,0 q -0.30274,-1.22071 -0.50782,-2.91993 -0.19531,-1.69921 -0.35156,-2.11914 -0.29297,-0.83007 -0.91797,-1.14257 -0.61523,-0.32227 -2.00195,-0.32227 l -2.41211,0 0,6.50391 -1.92383,0 z"
         style=""
         id="path5637" />
      <path
         d="m 469.82227,403.71819 q -0.3418,0.81054 -1.20118,1.29882 -0.84961,0.47852 -1.96289,0.47852 -0.97656,0 -1.79687,-0.36133 -0.82031,-0.37109 -1.29883,-1.01562 -0.26367,-0.35157 -0.37109,-0.84961 -0.10743,-0.49805 -0.10743,-1.70899 l 0,-6.29883 1.83594,0 0,6.41602 q 0,1.26953 0.54688,1.86523 0.54687,0.59571 1.68945,0.59571 1.17187,0 1.91406,-0.64453 0.75196,-0.64454 0.75196,-1.65039 l 0,-6.58204 1.85546,0 0,8.05664 q 0,0.59571 0.0195,1.08399 0.0195,0.47851 0.0684,0.89844 l -1.88476,0 -0.0586,-1.58203 z"
         style=""
         id="path5639" />
      <path
         d="m 476.77539,396.90178 q 0.3418,-0.81055 1.18164,-1.2793 0.84961,-0.47851 1.96289,-0.47851 0.9961,0 1.81641,0.36132 0.83008,0.36133 1.29883,0.9961 0.26367,0.35156 0.37109,0.84961 0.11719,0.49804 0.11719,1.70898 l 0,6.24024 -1.84571,0 0,-6.33789 q 0,-1.26954 -0.54687,-1.86524 -0.53711,-0.5957 -1.68945,-0.5957 -1.17188,0 -1.92383,0.63476 -0.74219,0.63477 -0.74219,1.64063 l 0,6.52344 -1.85547,0 0,-7.97852 q 0,-0.55664 -0.0195,-1.06445 -0.0195,-0.51758 -0.0586,-0.9961 l 1.875,0 0.0586,1.64063 z"
         style=""
         id="path5641" />
      <path
         d="m 491.0918,396.36467 q -1.42578,0 -2.26563,1.08398 -0.83008,1.07422 -0.83008,2.92969 0,1.79688 0.80078,2.7832 0.80079,0.97657 2.25586,0.97657 1.45508,0 2.27539,-1.03516 0.83008,-1.04492 0.83008,-2.88086 0,-1.83594 -0.80078,-2.8418 -0.80078,-1.01562 -2.26562,-1.01562 z m -5,4.11133 q 0,-2.51953 1.33789,-3.97461 1.34765,-1.46485 3.66211,-1.46485 2.34375,0 3.64257,1.36719 1.29883,1.35742 1.29883,3.79883 0,2.5293 -1.34765,3.93555 -1.33789,1.40625 -3.76953,1.40625 -2.23633,0 -3.53516,-1.35742 -1.28906,-1.35743 -1.28906,-3.71094 z"
         style=""
         id="path5643" />
      <path
         d="m 498.8457,396.61858 -1.83593,0 0,-1.35743 1.83593,0 0,-1.60156 q 0,-1.51367 0.69336,-2.25586 0.69336,-0.74219 2.08985,-0.74219 0.35156,0 0.76171,0.0488 0.41993,0.0391 0.91797,0.13672 l 0,1.47461 q -0.55664,-0.13672 -0.81054,-0.17578 -0.24414,-0.0488 -0.44922,-0.0488 -0.6543,0 -0.9961,0.41992 -0.34179,0.41016 -0.34179,1.18164 l 0,1.5625 2.31445,0 0,1.35743 -2.31445,0 0,8.68164 -1.86524,0 0,-8.68164 z"
         style=""
         id="path5645" />
      <path
         d="m 505.01758,396.61858 -1.83594,0 0,-1.35743 1.83594,0 0,-1.60156 q 0,-1.51367 0.69336,-2.25586 0.69336,-0.74219 2.08984,-0.74219 0.35156,0 0.76172,0.0488 0.41992,0.0391 0.91797,0.13672 l 0,1.47461 q -0.55664,-0.13672 -0.81055,-0.17578 -0.24414,-0.0488 -0.44922,-0.0488 -0.65429,0 -0.99609,0.41992 -0.3418,0.41016 -0.3418,1.18164 l 0,1.5625 2.31446,0 0,1.35743 -2.31446,0 0,8.68164 -1.86523,0 0,-8.68164 z"
         style=""
         id="path5647" />
    </g>
    <g
       transform="translate(-339.17718,-189.69705)"
       style="font-style:normal;font-variant:normal;font-weight:normal;font-stretch:normal;font-size:20px;font-family:'Zurich BT';-inkscape-font-specification:'Zurich BT';text-align:start;text-anchor:start;opacity:1;fill:#000000;fill-opacity:1;fill-rule:nonzero;stroke:#0000ff;stroke-width:0;stroke-linecap:round;stroke-miterlimit:4;stroke-dasharray:none;stroke-dashoffset:0;stroke-opacity:0.39215686"
       id="flowRoot4748">
      <path
         d="m 451.74609,401.08147 q 0.0488,1.40625 0.84961,2.08007 0.81055,0.67383 2.48047,0.67383 1.6211,0 2.5586,-0.66406 0.9375,-0.67383 0.9375,-1.83594 0,-1.65039 -3.35938,-2.49023 -0.39062,-0.0977 -0.58594,-0.14649 -0.18554,-0.0488 -0.5664,-0.14648 -1.9043,-0.46875 -2.64649,-0.9082 -0.73242,-0.43946 -1.15234,-1.20118 -0.41016,-0.77148 -0.41016,-1.69921 0,-1.875 1.45508,-2.96875 1.45508,-1.09375 3.98438,-1.09375 2.23632,0 3.51562,0.95703 1.28906,0.94726 1.28906,2.59765 l 0,0.22461 -1.94336,0 q -0.0488,-1.05468 -0.83984,-1.62109 -0.78125,-0.57617 -2.19727,-0.57617 -1.47461,0 -2.35351,0.64453 -0.86914,0.63476 -0.86914,1.70898 0,1.41602 3.23242,2.22657 0.45898,0.11718 0.70312,0.17578 2.89063,0.74218 3.81836,1.64062 0.92774,0.88867 0.92774,2.5 0,2.06055 -1.44531,3.22266 -1.43555,1.16211 -3.99414,1.16211 -2.77344,0 -4.11133,-1.04492 -1.32813,-1.04493 -1.32813,-3.22266 l 0,-0.19531 2.05078,0 z"
         id="path5787"
         inkscape:connector-curvature="0" />
      <path
         d="m 467.73242,396.36467 q -1.42578,0 -2.26562,1.08398 -0.83008,1.07422 -0.83008,2.92969 0,1.79688 0.80078,2.7832 0.80078,0.97657 2.25586,0.97657 1.45508,0 2.27539,-1.03516 0.83008,-1.04492 0.83008,-2.88086 0,-1.83594 -0.80078,-2.8418 -0.80078,-1.01562 -2.26563,-1.01562 z m -5,4.11133 q 0,-2.51953 1.33789,-3.97461 1.34766,-1.46485 3.66211,-1.46485 2.34375,0 3.64258,1.36719 1.29883,1.35742 1.29883,3.79883 0,2.5293 -1.34766,3.93555 -1.33789,1.40625 -3.76953,1.40625 -2.23633,0 -3.53516,-1.35742 -1.28906,-1.35743 -1.28906,-3.71094 z"
         id="path5789"
         inkscape:connector-curvature="0" />
      <path
         d="m 477.3125,392.93694 -2.16797,0 0,-2.04102 2.16797,0 0,2.04102 z m -2.00195,12.36328 0,-10.03907 1.85547,0 0,10.03907 -1.85547,0 z"
         id="path5791"
         inkscape:connector-curvature="0" />
      <path
         d="m 482.16602,405.30022 -1.85547,0 0,-14.4043 1.85547,0 0,14.4043 z"
         id="path5793"
         inkscape:connector-curvature="0" />
    </g>
    <g
       transform="translate(-31.428574,10.470623)"
       style="font-style:normal;font-variant:normal;font-weight:normal;font-stretch:normal;font-size:20px;font-family:'Zurich BT';-inkscape-font-specification:'Zurich BT';text-align:start;text-anchor:start;opacity:1;fill:#000000;fill-opacity:1;fill-rule:nonzero;stroke:#0000ff;stroke-width:0;stroke-linecap:round;stroke-miterlimit:4;stroke-dasharray:none;stroke-dashoffset:0;stroke-opacity:0.39215686"
       id="flowRoot4758">
      <path
         d="m 450.23242,405.30022 0,-14.4043 8.93555,0 0,1.70898 -7.01172,0 0,4.375 6.71875,0 0,1.69922 -6.71875,0 0,4.90235 7.17773,0 0,1.71875 -9.10156,0 z"
         style=""
         id="path5622" />
      <path
         d="m 462.16602,405.30022 0,-8.45703 q 0,-0.49805 -0.0195,-0.85938 -0.01,-0.36133 -0.0391,-0.72266 l 1.85547,0 0.0391,1.92383 q 0.27344,-0.95703 0.97657,-1.43554 0.71289,-0.48829 1.8457,-0.48829 0.20508,0 0.39062,0.0195 0.19532,0.01 0.3711,0.0488 l 0,1.72852 q -0.30274,-0.0586 -0.55664,-0.0879 -0.25391,-0.0293 -0.44922,-0.0293 -1.24024,0 -1.91406,0.70313 -0.66407,0.70312 -0.66407,2.01172 l 0,5.64453 -1.83593,0 z"
         style=""
         id="path5624" />
      <path
         d="m 474.06055,396.36467 q -1.42578,0 -2.26563,1.08398 -0.83008,1.07422 -0.83008,2.92969 0,1.79688 0.80078,2.7832 0.80079,0.97657 2.25586,0.97657 1.45508,0 2.27539,-1.03516 0.83008,-1.04492 0.83008,-2.88086 0,-1.83594 -0.80078,-2.8418 -0.80078,-1.01562 -2.26562,-1.01562 z m -5,4.11133 q 0,-2.51953 1.33789,-3.97461 1.34765,-1.46485 3.66211,-1.46485 2.34375,0 3.64257,1.36719 1.29883,1.35742 1.29883,3.79883 0,2.5293 -1.34765,3.93555 -1.33789,1.40625 -3.76953,1.40625 -2.23633,0 -3.53516,-1.35742 -1.28906,-1.35743 -1.28906,-3.71094 z"
         style=""
         id="path5626" />
      <path
         d="m 480.87695,402.28264 1.85547,0 0,0.0391 q 0,0.82031 0.57617,1.31836 0.58594,0.49805 1.55274,0.49805 0.9375,0 1.51367,-0.43946 0.58594,-0.43945 0.58594,-1.14257 0,-0.51758 -0.29297,-0.83985 -0.29297,-0.32226 -0.91797,-0.47851 l -2.12891,-0.49805 q -1.34765,-0.3125 -2.01172,-0.9668 -0.65429,-0.65429 -0.65429,-1.65039 0,-1.37695 1.11328,-2.22656 1.12305,-0.85938 2.94922,-0.85938 1.68945,0 2.66601,0.7129 0.97657,0.70312 0.97657,1.93359 0,0.11719 -0.01,0.18555 0,0.0586 -0.01,0.10742 l -1.8457,0 0,-0.0781 q 0,-0.72265 -0.51758,-1.14258 -0.50781,-0.41992 -1.39648,-0.41992 -0.86914,0 -1.43555,0.41992 -0.5664,0.41993 -0.5664,1.04493 0,0.48828 0.34179,0.79101 0.3418,0.29297 1.13282,0.50781 l 2.28515,0.625 q 1.18164,0.3125 1.74805,0.97657 0.5664,0.66406 0.5664,1.71875 0,1.42578 -1.08398,2.27539 -1.08398,0.84961 -2.92969,0.84961 -2.09961,0 -3.08593,-0.73242 -0.97657,-0.73243 -0.97657,-2.29493 l 0,-0.23437 z"
         style=""
         id="path5628" />
      <path
         d="m 493.48437,392.93694 -2.16796,0 0,-2.04102 2.16796,0 0,2.04102 z m -2.00195,12.36328 0,-10.03907 1.85547,0 0,10.03907 -1.85547,0 z"
         style=""
         id="path5630" />
      <path
         d="m 500.93555,396.36467 q -1.42578,0 -2.26563,1.08398 -0.83008,1.07422 -0.83008,2.92969 0,1.79688 0.80078,2.7832 0.80079,0.97657 2.25586,0.97657 1.45508,0 2.27539,-1.03516 0.83008,-1.04492 0.83008,-2.88086 0,-1.83594 -0.80078,-2.8418 -0.80078,-1.01562 -2.26562,-1.01562 z m -5,4.11133 q 0,-2.51953 1.33789,-3.97461 1.34765,-1.46485 3.66211,-1.46485 2.34375,0 3.64257,1.36719 1.29883,1.35742 1.29883,3.79883 0,2.5293 -1.34765,3.93555 -1.33789,1.40625 -3.76953,1.40625 -2.23633,0 -3.53516,-1.35742 -1.28906,-1.35743 -1.28906,-3.71094 z"
         style=""
         id="path5632" />
      <path
         d="m 510.4082,396.90178 q 0.3418,-0.81055 1.18164,-1.2793 0.84961,-0.47851 1.96289,-0.47851 0.9961,0 1.81641,0.36132 0.83008,0.36133 1.29883,0.9961 0.26367,0.35156 0.37109,0.84961 0.11719,0.49804 0.11719,1.70898 l 0,6.24024 -1.8457,0 0,-6.33789 q 0,-1.26954 -0.54688,-1.86524 -0.53711,-0.5957 -1.68945,-0.5957 -1.17188,0 -1.92383,0.63476 -0.74219,0.63477 -0.74219,1.64063 l 0,6.52344 -1.85547,0 0,-7.97852 q 0,-0.55664 -0.0195,-1.06445 -0.0195,-0.51758 -0.0586,-0.9961 l 1.875,0 0.0586,1.64063 z"
         style=""
         id="path5634" />
    </g>
    <g
       transform="translate(-31.428574,30.714284)"
       style="font-style:normal;font-variant:normal;font-weight:normal;font-stretch:normal;font-size:20px;font-family:'Zurich BT';-inkscape-font-specification:'Zurich BT';text-align:start;text-anchor:start;opacity:1;fill:#000000;fill-opacity:1;fill-rule:nonzero;stroke:#0000ff;stroke-width:0;stroke-linecap:round;stroke-miterlimit:4;stroke-dasharray:none;stroke-dashoffset:0;stroke-opacity:0.39215686"
       id="flowRoot4766">
      <path
         d="m 450.23242,405.30022 0,-14.4043 8.93555,0 0,1.70898 -7.01172,0 0,4.375 6.71875,0 0,1.69922 -6.71875,0 0,4.90235 7.17773,0 0,1.71875 -9.10156,0 z"
         style=""
         id="path5599" />
      <path
         d="m 465.06641,405.30022 -4.10157,-10.03907 1.875,0 3.20313,7.95899 3.24219,-7.95899 1.83593,0 -4.23828,10.03907 -1.8164,0 z"
         style=""
         id="path5601" />
      <path
         d="m 480.75977,405.30022 -1.66016,0 q -0.0977,-0.3125 -0.19531,-1.52344 0,-0.0391 0,-0.0586 -0.38086,0.88867 -1.21094,1.35742 -0.82031,0.46875 -2.01172,0.46875 -1.52344,0 -2.44141,-0.83008 -0.91796,-0.83008 -0.91796,-2.19727 0,-1.59179 1.26953,-2.51953 1.26953,-0.9375 3.46679,-0.9375 l 1.74805,0 0,-1.2207 q 0,-0.81055 -0.50781,-1.2207 -0.49805,-0.41993 -1.47461,-0.41993 -0.92774,0 -1.47461,0.45899 -0.53711,0.45898 -0.56641,1.25976 l -1.77734,0 0,-0.15625 q 0,-1.32812 0.94726,-2.03125 0.95704,-0.71289 2.74415,-0.71289 2.08007,0 3.01757,0.74219 0.94727,0.73242 0.94727,2.38281 l 0,6.20118 q 0,0.12695 0.0195,0.39062 0.0293,0.25391 0.0781,0.56641 z m -1.95313,-4.98047 -1.5625,0 q -1.43555,0 -2.22656,0.53711 -0.79102,0.52734 -0.79102,1.48437 0,0.73242 0.53711,1.22071 0.53711,0.47851 1.35742,0.47851 1.29883,0 1.99219,-0.69336 0.69336,-0.70312 0.69336,-2.03125 l 0,-0.99609 z"
         style=""
         id="path5603" />
      <path
         d="m 485.50586,400.07561 q 0,1.91406 0.78125,3.03711 0.79101,1.12304 2.08008,1.12304 1.31836,0 2.10937,-1.04492 0.79102,-1.04492 0.79102,-2.8125 0,-1.91406 -0.78125,-3.02734 -0.77149,-1.11328 -2.08008,-1.11328 -1.30859,0 -2.10938,1.04492 -0.79101,1.03515 -0.79101,2.79297 z m -1.83594,9.02343 0,-11.85546 q 0,-0.50782 -0.0293,-0.98633 -0.0293,-0.48828 -0.0976,-0.9961 l 1.88476,0 0.0781,1.50391 q 0.56641,-0.87891 1.36719,-1.30859 0.81054,-0.43946 1.875,-0.43946 2.08007,0 3.24218,1.38672 1.17188,1.37696 1.17188,3.83789 0,2.5293 -1.13281,3.87696 -1.12305,1.33789 -3.24219,1.33789 -1.01563,0 -1.85547,-0.42969 -0.83984,-0.43945 -1.42578,-1.26953 l 0,5.34179 -1.83594,0 z"
         style=""
         id="path5605" />
      <path
         d="m 500.23242,396.36467 q -1.42578,0 -2.26562,1.08398 -0.83008,1.07422 -0.83008,2.92969 0,1.79688 0.80078,2.7832 0.80078,0.97657 2.25586,0.97657 1.45508,0 2.27539,-1.03516 0.83008,-1.04492 0.83008,-2.88086 0,-1.83594 -0.80078,-2.8418 -0.80078,-1.01562 -2.26563,-1.01562 z m -5,4.11133 q 0,-2.51953 1.33789,-3.97461 1.34766,-1.46485 3.66211,-1.46485 2.34375,0 3.64258,1.36719 1.29883,1.35742 1.29883,3.79883 0,2.5293 -1.34766,3.93555 -1.33789,1.40625 -3.76953,1.40625 -2.23633,0 -3.53516,-1.35742 -1.28906,-1.35743 -1.28906,-3.71094 z"
         style=""
         id="path5607" />
      <path
         d="m 507.75195,405.30022 0,-8.45703 q 0,-0.49805 -0.0195,-0.85938 -0.01,-0.36133 -0.0391,-0.72266 l 1.85547,0 0.0391,1.92383 q 0.27344,-0.95703 0.97656,-1.43554 0.71289,-0.48829 1.84571,-0.48829 0.20507,0 0.39062,0.0195 0.19531,0.01 0.37109,0.0488 l 0,1.72852 q -0.30273,-0.0586 -0.55664,-0.0879 -0.2539,-0.0293 -0.44921,-0.0293 -1.24024,0 -1.91407,0.70313 -0.66406,0.70312 -0.66406,2.01172 l 0,5.64453 -1.83594,0 z"
         style=""
         id="path5609" />
      <path
         d="m 522.86914,405.30022 -1.66016,0 q -0.0977,-0.3125 -0.19531,-1.52344 0,-0.0391 0,-0.0586 -0.38086,0.88867 -1.21094,1.35742 -0.82031,0.46875 -2.01171,0.46875 -1.52344,0 -2.44141,-0.83008 -0.91797,-0.83008 -0.91797,-2.19727 0,-1.59179 1.26953,-2.51953 1.26953,-0.9375 3.4668,-0.9375 l 1.74805,0 0,-1.2207 q 0,-0.81055 -0.50782,-1.2207 -0.49804,-0.41993 -1.47461,-0.41993 -0.92773,0 -1.47461,0.45899 -0.53711,0.45898 -0.5664,1.25976 l -1.77735,0 0,-0.15625 q 0,-1.32812 0.94727,-2.03125 0.95703,-0.71289 2.74414,-0.71289 2.08008,0 3.01758,0.74219 0.94726,0.73242 0.94726,2.38281 l 0,6.20118 q 0,0.12695 0.0195,0.39062 0.0293,0.25391 0.0781,0.56641 z m -1.95312,-4.98047 -1.5625,0 q -1.43555,0 -2.22657,0.53711 -0.79101,0.52734 -0.79101,1.48437 0,0.73242 0.53711,1.22071 0.53711,0.47851 1.35742,0.47851 1.29883,0 1.99219,-0.69336 0.69336,-0.70312 0.69336,-2.03125 l 0,-0.99609 z"
         style=""
         id="path5611" />
      <path
         d="m 524.43164,395.26115 1.70898,0 0,-2.06054 1.83594,-0.625 0,2.68554 2.23633,0 0,1.31836 -2.23633,0 0,6.16211 q 0,0.78125 0.25391,1.03516 0.26367,0.24414 1.02539,0.24414 0.19531,0 0.41992,-0.0293 0.22461,-0.0391 0.49805,-0.10742 l 0,1.39649 q -0.44922,0.11718 -0.81055,0.17578 -0.36133,0.0684 -0.64453,0.0684 -1.41602,0 -2.00195,-0.48829 -0.57618,-0.48828 -0.57618,-1.64062 l 0,-6.81641 -1.70898,0 0,-1.31836 z"
         style=""
         id="path5613" />
      <path
         d="m 534.14844,392.93694 -2.16797,0 0,-2.04102 2.16797,0 0,2.04102 z m -2.00196,12.36328 0,-10.03907 1.85547,0 0,10.03907 -1.85547,0 z"
         style=""
         id="path5615" />
      <path
         d="m 541.59961,396.36467 q -1.42578,0 -2.26563,1.08398 -0.83007,1.07422 -0.83007,2.92969 0,1.79688 0.80078,2.7832 0.80078,0.97657 2.25586,0.97657 1.45507,0 2.27539,-1.03516 0.83008,-1.04492 0.83008,-2.88086 0,-1.83594 -0.80079,-2.8418 -0.80078,-1.01562 -2.26562,-1.01562 z m -5,4.11133 q 0,-2.51953 1.33789,-3.97461 1.34766,-1.46485 3.66211,-1.46485 2.34375,0 3.64258,1.36719 1.29883,1.35742 1.29883,3.79883 0,2.5293 -1.34766,3.93555 -1.33789,1.40625 -3.76953,1.40625 -2.23633,0 -3.53516,-1.35742 -1.28906,-1.35743 -1.28906,-3.71094 z"
         style=""
         id="path5617" />
      <path
         d="m 551.07227,396.90178 q 0.34179,-0.81055 1.18164,-1.2793 0.84961,-0.47851 1.96289,-0.47851 0.99609,0 1.8164,0.36132 0.83008,0.36133 1.29883,0.9961 0.26367,0.35156 0.37109,0.84961 0.11719,0.49804 0.11719,1.70898 l 0,6.24024 -1.8457,0 0,-6.33789 q 0,-1.26954 -0.54688,-1.86524 -0.53711,-0.5957 -1.68945,-0.5957 -1.17187,0 -1.92383,0.63476 -0.74218,0.63477 -0.74218,1.64063 l 0,6.52344 -1.85547,0 0,-7.97852 q 0,-0.55664 -0.0195,-1.06445 -0.0195,-0.51758 -0.0586,-0.9961 l 1.875,0 0.0586,1.64063 z"
         style=""
         id="path5619" />
    </g>
    <g
       transform="translate(53.480742,-208.18448)"
       style="font-style:normal;font-variant:normal;font-weight:normal;font-stretch:normal;font-size:20px;font-family:'Zurich BT';-inkscape-font-specification:'Zurich BT';text-align:start;text-anchor:start;opacity:1;fill:#000000;fill-opacity:1;fill-rule:nonzero;stroke:#0000ff;stroke-width:0;stroke-linecap:round;stroke-miterlimit:4;stroke-dasharray:none;stroke-dashoffset:0;stroke-opacity:0.39215686"
       id="flowRoot4774">
      <path
         d="m 450.23242,405.30022 0,-14.4043 8.37891,0 0,1.72852 -6.45508,0 0,4.41406 6.11328,0 0,1.71875 -6.11328,0 0,6.54297 -1.92383,0 z"
         style=""
         id="path5682" />
      <path
         d="m 460.74023,405.30022 0,-8.45703 q 0,-0.49805 -0.0195,-0.85938 -0.01,-0.36133 -0.0391,-0.72266 l 1.85547,0 0.0391,1.92383 q 0.27344,-0.95703 0.97656,-1.43554 0.71289,-0.48829 1.84571,-0.48829 0.20508,0 0.39062,0.0195 0.19531,0.01 0.3711,0.0488 l 0,1.72852 q -0.30274,-0.0586 -0.55664,-0.0879 -0.25391,-0.0293 -0.44922,-0.0293 -1.24024,0 -1.91407,0.70313 -0.66406,0.70312 -0.66406,2.01172 l 0,5.64453 -1.83594,0 z"
         style=""
         id="path5684" />
      <path
         d="m 474.90039,403.71819 q -0.3418,0.81054 -1.20117,1.29882 -0.84961,0.47852 -1.96289,0.47852 -0.97656,0 -1.79688,-0.36133 -0.82031,-0.37109 -1.29883,-1.01562 -0.26367,-0.35157 -0.37109,-0.84961 -0.10742,-0.49805 -0.10742,-1.70899 l 0,-6.29883 1.83594,0 0,6.41602 q 0,1.26953 0.54687,1.86523 0.54688,0.59571 1.68945,0.59571 1.17188,0 1.91407,-0.64453 0.75195,-0.64454 0.75195,-1.65039 l 0,-6.58204 1.85547,0 0,8.05664 q 0,0.59571 0.0195,1.08399 0.0195,0.47851 0.0684,0.89844 l -1.88477,0 -0.0586,-1.58203 z"
         style=""
         id="path5686" />
      <path
         d="m 481.96094,392.93694 -2.16797,0 0,-2.04102 2.16797,0 0,2.04102 z m -2.00196,12.36328 0,-10.03907 1.85547,0 0,10.03907 -1.85547,0 z"
         style=""
         id="path5688" />
      <path
         d="m 483.57227,395.26115 1.70898,0 0,-2.06054 1.83594,-0.625 0,2.68554 2.23633,0 0,1.31836 -2.23633,0 0,6.16211 q 0,0.78125 0.2539,1.03516 0.26368,0.24414 1.02539,0.24414 0.19532,0 0.41993,-0.0293 0.22461,-0.0391 0.49804,-0.10742 l 0,1.39649 q -0.44922,0.11718 -0.81054,0.17578 -0.36133,0.0684 -0.64454,0.0684 -1.41601,0 -2.00195,-0.48829 -0.57617,-0.48828 -0.57617,-1.64062 l 0,-6.81641 -1.70898,0 0,-1.31836 z"
         style=""
         id="path5690" />
      <path
         d="m 489.38281,406.73576 5.22461,-16.05468 1.20117,0 -5.22461,16.05468 -1.20117,0 z"
         style=""
         id="path5692" />
      <path
         d="m 502.07812,397.20451 q 1.60157,0 2.28516,-0.53711 0.69336,-0.54687 0.69336,-1.76757 0,-1.25977 -0.68359,-1.79688 -0.67383,-0.54687 -2.29493,-0.54687 l -2.77343,0 0,4.64843 2.77343,0 z m -4.69726,8.09571 0,-14.4043 5.01953,0 q 2.36328,0 3.52539,0.98633 1.17188,0.98633 1.17188,2.97851 0,2.12891 -1.36719,3.125 -1.35742,0.9961 -4.26758,0.9961 l -2.1582,0 0,6.31836 -1.92383,0 z"
         style=""
         id="path5694" />
      <path
         d="m 508.98242,405.30022 0,-8.45703 q 0,-0.49805 -0.0195,-0.85938 -0.01,-0.36133 -0.0391,-0.72266 l 1.85547,0 0.0391,1.92383 q 0.27344,-0.95703 0.97656,-1.43554 0.71289,-0.48829 1.8457,-0.48829 0.20508,0 0.39063,0.0195 0.19531,0.01 0.37109,0.0488 l 0,1.72852 q -0.30273,-0.0586 -0.55664,-0.0879 -0.2539,-0.0293 -0.44922,-0.0293 -1.24023,0 -1.91406,0.70313 -0.66406,0.70312 -0.66406,2.01172 l 0,5.64453 -1.83594,0 z"
         style=""
         id="path5696" />
      <path
         d="m 520.89648,396.36467 q -1.42578,0 -2.26562,1.08398 -0.83008,1.07422 -0.83008,2.92969 0,1.79688 0.80078,2.7832 0.80078,0.97657 2.25586,0.97657 1.45508,0 2.27539,-1.03516 0.83008,-1.04492 0.83008,-2.88086 0,-1.83594 -0.80078,-2.8418 -0.80078,-1.01562 -2.26563,-1.01562 z m -5,4.11133 q 0,-2.51953 1.33789,-3.97461 1.34766,-1.46485 3.66211,-1.46485 2.34375,0 3.64258,1.36719 1.29883,1.35742 1.29883,3.79883 0,2.5293 -1.34766,3.93555 -1.33789,1.40625 -3.76953,1.40625 -2.23633,0 -3.53515,-1.35742 -1.28907,-1.35743 -1.28907,-3.71094 z"
         style=""
         id="path5698" />
      <path
         d="m 529.79297,400.1635 q 0,1.91406 0.78125,3.03711 0.79101,1.12304 2.08008,1.12304 1.31836,0 2.10937,-1.03515 0.79102,-1.04492 0.79102,-2.8125 0,-1.91406 -0.78125,-3.03711 -0.78125,-1.12305 -2.08008,-1.12305 -1.31836,0 -2.10938,1.04492 -0.79101,1.03516 -0.79101,2.80274 z m 5.83984,5.13672 -0.0781,-1.48438 q -0.70313,0.91797 -1.46485,1.32813 -0.75195,0.40039 -1.75781,0.40039 -2.07031,0 -3.27148,-1.38672 -1.19141,-1.38672 -1.19141,-3.79883 0,-2.4707 1.16211,-3.85742 1.17187,-1.39649 3.24219,-1.39649 1.02539,0 1.85547,0.42969 0.83984,0.41992 1.42578,1.25 l 0,-5.88867 1.83593,0 0,12.40234 q 0,0.52735 0.0293,1.01563 0.0293,0.48828 0.0879,0.98633 l -1.875,0 z"
         style=""
         id="path5700" />
      <path
         d="m 547.24414,403.71819 q -0.3418,0.81054 -1.20117,1.29882 -0.84961,0.47852 -1.96289,0.47852 -0.97656,0 -1.79688,-0.36133 -0.82031,-0.37109 -1.29883,-1.01562 -0.26367,-0.35157 -0.37109,-0.84961 -0.10742,-0.49805 -0.10742,-1.70899 l 0,-6.29883 1.83594,0 0,6.41602 q 0,1.26953 0.54687,1.86523 0.54688,0.59571 1.68945,0.59571 1.17188,0 1.91407,-0.64453 0.75195,-0.64454 0.75195,-1.65039 l 0,-6.58204 1.85547,0 0,8.05664 q 0,0.59571 0.0195,1.08399 0.0195,0.47851 0.0684,0.89844 l -1.88477,0 -0.0586,-1.58203 z"
         style=""
         id="path5702" />
      <path
         d="m 560.05664,401.92131 q -0.11719,1.75781 -1.12305,2.69531 -1.00586,0.92774 -2.79297,0.92774 -2.13867,0 -3.30078,-1.3086 -1.16211,-1.31836 -1.16211,-3.74023 0,-2.58789 1.21094,-4.0332 1.2207,-1.44532 3.38867,-1.44532 1.68946,0 2.69532,0.91797 1.00586,0.90821 1.00586,2.44141 l 0,0.0391 -1.79688,0 q 0,-0.89844 -0.58594,-1.49414 -0.58593,-0.60547 -1.45508,-0.60547 -1.18164,0 -1.86523,1.00586 -0.67383,0.99609 -0.67383,2.73438 0,2.02148 0.625,3.05664 0.63477,1.02539 1.875,1.02539 0.9668,0 1.55274,-0.59571 0.58593,-0.60546 0.60547,-1.62109 l 1.79687,0 z"
         style=""
         id="path5704" />
      <path
         d="m 563.97266,399.28459 5.17578,0 0,-0.22461 q 0,-1.25 -0.69336,-2.01172 -0.6836,-0.77148 -1.77735,-0.77148 -1.20117,0 -1.95312,0.83008 -0.75195,0.83008 -0.75195,2.17773 z m 6.875,2.79297 q -0.01,1.5625 -1.12305,2.51953 -1.10352,0.94727 -2.92969,0.94727 -2.34375,0 -3.55469,-1.28907 -1.21093,-1.28906 -1.21093,-3.77929 0,-2.64649 1.1914,-4.05274 1.20117,-1.40625 3.42774,-1.40625 2.04101,0 3.21289,1.17188 1.17187,1.16211 1.17187,3.17383 0,0.48828 -0.01,0.74218 -0.01,0.25391 -0.0293,0.47852 l -7.11914,0 0,0.19531 0,0.40039 q 0,1.42578 0.73242,2.20703 0.73242,0.77149 2.07031,0.77149 1.10352,0 1.74805,-0.55664 0.6543,-0.56641 0.67383,-1.52344 l 1.74805,0 z"
         style=""
         id="path5706" />
    </g>
    <g
       transform="translate(54.037383,-183.70682)"
       style="font-style:normal;font-variant:normal;font-weight:normal;font-stretch:normal;font-size:20px;font-family:'Zurich BT';-inkscape-font-specification:'Zurich BT';text-align:start;text-anchor:start;opacity:1;fill:#000000;fill-opacity:1;fill-rule:nonzero;stroke:#0000ff;stroke-width:0;stroke-linecap:round;stroke-miterlimit:4;stroke-dasharray:none;stroke-dashoffset:0;stroke-opacity:0.39215686"
       id="flowRoot4782">
      <path
         d="m 461.79492,404.63615 q -1.41601,0.46875 -2.66601,0.69336 -1.25,0.23438 -2.39258,0.23438 -3.31055,0 -5.18555,-1.94336 -1.875,-1.94336 -1.875,-5.36133 0,-3.53516 1.88477,-5.55664 1.88476,-2.02148 5.17578,-2.02148 2.30469,0 3.65234,1.01562 1.34766,1.01563 1.40625,2.7832 l -2.09961,0 q -0.0391,-1.00586 -0.94726,-1.66015 -0.89844,-0.66406 -2.27539,-0.66406 -2.23633,0 -3.4961,1.60156 -1.25976,1.59179 -1.25976,4.42383 0,2.7539 1.32812,4.26757 1.33789,1.51368 3.76953,1.51368 0.60547,0 1.3086,-0.12696 0.71289,-0.12695 1.63086,-0.39062 l 0,-4.28711 -2.99805,0 0,-1.6211 5.03906,0 0,7.09961 z"
         style=""
         id="path5661" />
      <path
         d="m 464.97852,405.30022 0,-8.45703 q 0,-0.49805 -0.0195,-0.85938 -0.01,-0.36133 -0.0391,-0.72266 l 1.85547,0 0.0391,1.92383 q 0.27344,-0.95703 0.97657,-1.43554 0.71289,-0.48829 1.8457,-0.48829 0.20508,0 0.39062,0.0195 0.19532,0.01 0.3711,0.0488 l 0,1.72852 q -0.30274,-0.0586 -0.55664,-0.0879 -0.25391,-0.0293 -0.44922,-0.0293 -1.24024,0 -1.91406,0.70313 -0.66407,0.70312 -0.66407,2.01172 l 0,5.64453 -1.83593,0 z"
         style=""
         id="path5663" />
      <path
         d="m 473.77734,399.28459 5.17578,0 0,-0.22461 q 0,-1.25 -0.69335,-2.01172 -0.6836,-0.77148 -1.77735,-0.77148 -1.20117,0 -1.95312,0.83008 -0.75196,0.83008 -0.75196,2.17773 z m 6.875,2.79297 q -0.01,1.5625 -1.12304,2.51953 -1.10352,0.94727 -2.92969,0.94727 -2.34375,0 -3.55469,-1.28907 -1.21094,-1.28906 -1.21094,-3.77929 0,-2.64649 1.19141,-4.05274 1.20117,-1.40625 3.42773,-1.40625 2.04102,0 3.2129,1.17188 1.17187,1.16211 1.17187,3.17383 0,0.48828 -0.01,0.74218 -0.01,0.25391 -0.0293,0.47852 l -7.11914,0 0,0.19531 0,0.40039 q 0,1.42578 0.73242,2.20703 0.73242,0.77149 2.07031,0.77149 1.10352,0 1.74805,-0.55664 0.6543,-0.56641 0.67383,-1.52344 l 1.74804,0 z"
         style=""
         id="path5665" />
      <path
         d="m 484.79297,399.28459 5.17578,0 0,-0.22461 q 0,-1.25 -0.69336,-2.01172 -0.68359,-0.77148 -1.77734,-0.77148 -1.20118,0 -1.95313,0.83008 -0.75195,0.83008 -0.75195,2.17773 z m 6.875,2.79297 q -0.01,1.5625 -1.12305,2.51953 -1.10351,0.94727 -2.92969,0.94727 -2.34375,0 -3.55468,-1.28907 -1.21094,-1.28906 -1.21094,-3.77929 0,-2.64649 1.19141,-4.05274 1.20117,-1.40625 3.42773,-1.40625 2.04102,0 3.21289,1.17188 1.17188,1.16211 1.17188,3.17383 0,0.48828 -0.01,0.74218 -0.01,0.25391 -0.0293,0.47852 l -7.11914,0 0,0.19531 0,0.40039 q 0,1.42578 0.73242,2.20703 0.73243,0.77149 2.07032,0.77149 1.10351,0 1.74804,-0.55664 0.6543,-0.56641 0.67383,-1.52344 l 1.74805,0 z"
         style=""
         id="path5667" />
      <path
         d="m 496.3457,396.90178 q 0.3418,-0.81055 1.18164,-1.2793 0.84961,-0.47851 1.96289,-0.47851 0.9961,0 1.81641,0.36132 0.83008,0.36133 1.29883,0.9961 0.26367,0.35156 0.37109,0.84961 0.11719,0.49804 0.11719,1.70898 l 0,6.24024 -1.8457,0 0,-6.33789 q 0,-1.26954 -0.54688,-1.86524 -0.53711,-0.5957 -1.68945,-0.5957 -1.17188,0 -1.92383,0.63476 -0.74219,0.63477 -0.74219,1.64063 l 0,6.52344 -1.85547,0 0,-7.97852 q 0,-0.55664 -0.0195,-1.06445 -0.0195,-0.51758 -0.0586,-0.9961 l 1.875,0 0.0586,1.64063 z"
         style=""
         id="path5669" />
      <path
         d="m 513.94336,395.26115 2.28516,8.05664 2.55859,-8.05664 1.79687,0 -3.47656,10.03907 -1.94336,0 -2.42187,-8.4375 -2.63672,8.4375 -1.96289,0 -3.29102,-10.03907 1.81641,0 2.5,8.05664 2.51953,-8.05664 2.25586,0 z"
         style=""
         id="path5671" />
      <path
         d="m 530.0957,405.30022 -1.66015,0 q -0.0977,-0.3125 -0.19532,-1.52344 0,-0.0391 0,-0.0586 -0.38086,0.88867 -1.21093,1.35742 -0.82032,0.46875 -2.01172,0.46875 -1.52344,0 -2.44141,-0.83008 -0.91797,-0.83008 -0.91797,-2.19727 0,-1.59179 1.26953,-2.51953 1.26954,-0.9375 3.4668,-0.9375 l 1.74805,0 0,-1.2207 q 0,-0.81055 -0.50781,-1.2207 -0.49805,-0.41993 -1.47461,-0.41993 -0.92774,0 -1.47461,0.45899 -0.53711,0.45898 -0.56641,1.25976 l -1.77734,0 0,-0.15625 q 0,-1.32812 0.94726,-2.03125 0.95703,-0.71289 2.74414,-0.71289 2.08008,0 3.01758,0.74219 0.94727,0.73242 0.94727,2.38281 l 0,6.20118 q 0,0.12695 0.0195,0.39062 0.0293,0.25391 0.0781,0.56641 z m -1.95312,-4.98047 -1.5625,0 q -1.43555,0 -2.22656,0.53711 -0.79102,0.52734 -0.79102,1.48437 0,0.73242 0.53711,1.22071 0.53711,0.47851 1.35742,0.47851 1.29883,0 1.99219,-0.69336 0.69336,-0.70312 0.69336,-2.03125 l 0,-0.99609 z"
         style=""
         id="path5673" />
      <path
         d="m 532.2832,402.28264 1.85547,0 0,0.0391 q 0,0.82031 0.57617,1.31836 0.58594,0.49805 1.55274,0.49805 0.9375,0 1.51367,-0.43946 0.58594,-0.43945 0.58594,-1.14257 0,-0.51758 -0.29297,-0.83985 -0.29297,-0.32226 -0.91797,-0.47851 l -2.12891,-0.49805 q -1.34765,-0.3125 -2.01172,-0.9668 -0.65429,-0.65429 -0.65429,-1.65039 0,-1.37695 1.11328,-2.22656 1.12305,-0.85938 2.94922,-0.85938 1.68945,0 2.66601,0.7129 0.97657,0.70312 0.97657,1.93359 0,0.11719 -0.01,0.18555 0,0.0586 -0.01,0.10742 l -1.8457,0 0,-0.0781 q 0,-0.72265 -0.51758,-1.14258 -0.50781,-0.41992 -1.39648,-0.41992 -0.86914,0 -1.43555,0.41992 -0.5664,0.41993 -0.5664,1.04493 0,0.48828 0.34179,0.79101 0.3418,0.29297 1.13282,0.50781 l 2.28515,0.625 q 1.18164,0.3125 1.74805,0.97657 0.5664,0.66406 0.5664,1.71875 0,1.42578 -1.08398,2.27539 -1.08398,0.84961 -2.92969,0.84961 -2.09961,0 -3.08593,-0.73242 -0.97657,-0.73243 -0.97657,-2.29493 l 0,-0.23437 z"
         style=""
         id="path5675" />
      <path
         d="m 541.50195,395.26115 1.70899,0 0,-2.06054 1.83593,-0.625 0,2.68554 2.23633,0 0,1.31836 -2.23633,0 0,6.16211 q 0,0.78125 0.25391,1.03516 0.26367,0.24414 1.02539,0.24414 0.19531,0 0.41992,-0.0293 0.22461,-0.0391 0.49805,-0.10742 l 0,1.39649 q -0.44922,0.11718 -0.81055,0.17578 -0.36132,0.0684 -0.64453,0.0684 -1.41601,0 -2.00195,-0.48829 -0.57617,-0.48828 -0.57617,-1.64062 l 0,-6.81641 -1.70899,0 0,-1.31836 z"
         style=""
         id="path5677" />
      <path
         d="m 550.57422,399.28459 5.17578,0 0,-0.22461 q 0,-1.25 -0.69336,-2.01172 -0.68359,-0.77148 -1.77734,-0.77148 -1.20118,0 -1.95313,0.83008 -0.75195,0.83008 -0.75195,2.17773 z m 6.875,2.79297 q -0.01,1.5625 -1.12305,2.51953 -1.10351,0.94727 -2.92969,0.94727 -2.34375,0 -3.55468,-1.28907 -1.21094,-1.28906 -1.21094,-3.77929 0,-2.64649 1.19141,-4.05274 1.20117,-1.40625 3.42773,-1.40625 2.04102,0 3.21289,1.17188 1.17188,1.16211 1.17188,3.17383 0,0.48828 -0.01,0.74218 -0.01,0.25391 -0.0293,0.47852 l -7.11914,0 0,0.19531 0,0.40039 q 0,1.42578 0.73242,2.20703 0.73243,0.77149 2.07032,0.77149 1.10351,0 1.74804,-0.55664 0.6543,-0.56641 0.67383,-1.52344 l 1.74805,0 z"
         style=""
         id="path5679" />
    </g>
    <g
       transform="translate(-339.71429,-73.18448)"
       style="font-style:normal;font-variant:normal;font-weight:normal;font-stretch:normal;font-size:20px;font-family:'Zurich BT';-inkscape-font-specification:'Zurich BT';text-align:start;text-anchor:start;opacity:1;fill:#000000;fill-opacity:1;fill-rule:nonzero;stroke:#0000ff;stroke-width:0;stroke-linecap:round;stroke-miterlimit:4;stroke-dasharray:none;stroke-dashoffset:0;stroke-opacity:0.39215686"
       id="flowRoot4790">
      <path
         d="m 450.23242,405.30022 0,-14.4043 8.37891,0 0,1.72852 -6.45508,0 0,4.41406 6.11328,0 0,1.71875 -6.11328,0 0,6.54297 -1.92383,0 z"
         id="path5737"
         inkscape:connector-curvature="0" />
      <path
         d="m 460.74023,405.30022 0,-8.45703 q 0,-0.49805 -0.0195,-0.85938 -0.01,-0.36133 -0.0391,-0.72266 l 1.85547,0 0.0391,1.92383 q 0.27344,-0.95703 0.97656,-1.43554 0.71289,-0.48829 1.84571,-0.48829 0.20508,0 0.39062,0.0195 0.19531,0.01 0.3711,0.0488 l 0,1.72852 q -0.30274,-0.0586 -0.55664,-0.0879 -0.25391,-0.0293 -0.44922,-0.0293 -1.24024,0 -1.91407,0.70313 -0.66406,0.70312 -0.66406,2.01172 l 0,5.64453 -1.83594,0 z"
         id="path5739"
         inkscape:connector-curvature="0" />
      <path
         d="m 474.90039,403.71819 q -0.3418,0.81054 -1.20117,1.29882 -0.84961,0.47852 -1.96289,0.47852 -0.97656,0 -1.79688,-0.36133 -0.82031,-0.37109 -1.29883,-1.01562 -0.26367,-0.35157 -0.37109,-0.84961 -0.10742,-0.49805 -0.10742,-1.70899 l 0,-6.29883 1.83594,0 0,6.41602 q 0,1.26953 0.54687,1.86523 0.54688,0.59571 1.68945,0.59571 1.17188,0 1.91407,-0.64453 0.75195,-0.64454 0.75195,-1.65039 l 0,-6.58204 1.85547,0 0,8.05664 q 0,0.59571 0.0195,1.08399 0.0195,0.47851 0.0684,0.89844 l -1.88477,0 -0.0586,-1.58203 z"
         id="path5741"
         inkscape:connector-curvature="0" />
      <path
         d="m 481.96094,392.93694 -2.16797,0 0,-2.04102 2.16797,0 0,2.04102 z m -2.00196,12.36328 0,-10.03907 1.85547,0 0,10.03907 -1.85547,0 z"
         id="path5743"
         inkscape:connector-curvature="0" />
      <path
         d="m 483.57227,395.26115 1.70898,0 0,-2.06054 1.83594,-0.625 0,2.68554 2.23633,0 0,1.31836 -2.23633,0 0,6.16211 q 0,0.78125 0.2539,1.03516 0.26368,0.24414 1.02539,0.24414 0.19532,0 0.41993,-0.0293 0.22461,-0.0391 0.49804,-0.10742 l 0,1.39649 q -0.44922,0.11718 -0.81054,0.17578 -0.36133,0.0684 -0.64454,0.0684 -1.41601,0 -2.00195,-0.48829 -0.57617,-0.48828 -0.57617,-1.64062 l 0,-6.81641 -1.70898,0 0,-1.31836 z"
         id="path5745"
         inkscape:connector-curvature="0" />
      <path
         d="m 489.38281,406.73576 5.22461,-16.05468 1.20117,0 -5.22461,16.05468 -1.20117,0 z"
         id="path5747"
         inkscape:connector-curvature="0" />
      <path
         d="m 502.07812,397.20451 q 1.60157,0 2.28516,-0.53711 0.69336,-0.54687 0.69336,-1.76757 0,-1.25977 -0.68359,-1.79688 -0.67383,-0.54687 -2.29493,-0.54687 l -2.77343,0 0,4.64843 2.77343,0 z m -4.69726,8.09571 0,-14.4043 5.01953,0 q 2.36328,0 3.52539,0.98633 1.17188,0.98633 1.17188,2.97851 0,2.12891 -1.36719,3.125 -1.35742,0.9961 -4.26758,0.9961 l -2.1582,0 0,6.31836 -1.92383,0 z"
         id="path5749"
         inkscape:connector-curvature="0" />
      <path
         d="m 508.98242,405.30022 0,-8.45703 q 0,-0.49805 -0.0195,-0.85938 -0.01,-0.36133 -0.0391,-0.72266 l 1.85547,0 0.0391,1.92383 q 0.27344,-0.95703 0.97656,-1.43554 0.71289,-0.48829 1.8457,-0.48829 0.20508,0 0.39063,0.0195 0.19531,0.01 0.37109,0.0488 l 0,1.72852 q -0.30273,-0.0586 -0.55664,-0.0879 -0.2539,-0.0293 -0.44922,-0.0293 -1.24023,0 -1.91406,0.70313 -0.66406,0.70312 -0.66406,2.01172 l 0,5.64453 -1.83594,0 z"
         id="path5751"
         inkscape:connector-curvature="0" />
      <path
         d="m 520.89648,396.36467 q -1.42578,0 -2.26562,1.08398 -0.83008,1.07422 -0.83008,2.92969 0,1.79688 0.80078,2.7832 0.80078,0.97657 2.25586,0.97657 1.45508,0 2.27539,-1.03516 0.83008,-1.04492 0.83008,-2.88086 0,-1.83594 -0.80078,-2.8418 -0.80078,-1.01562 -2.26563,-1.01562 z m -5,4.11133 q 0,-2.51953 1.33789,-3.97461 1.34766,-1.46485 3.66211,-1.46485 2.34375,0 3.64258,1.36719 1.29883,1.35742 1.29883,3.79883 0,2.5293 -1.34766,3.93555 -1.33789,1.40625 -3.76953,1.40625 -2.23633,0 -3.53515,-1.35742 -1.28907,-1.35743 -1.28907,-3.71094 z"
         id="path5753"
         inkscape:connector-curvature="0" />
      <path
         d="m 529.79297,400.1635 q 0,1.91406 0.78125,3.03711 0.79101,1.12304 2.08008,1.12304 1.31836,0 2.10937,-1.03515 0.79102,-1.04492 0.79102,-2.8125 0,-1.91406 -0.78125,-3.03711 -0.78125,-1.12305 -2.08008,-1.12305 -1.31836,0 -2.10938,1.04492 -0.79101,1.03516 -0.79101,2.80274 z m 5.83984,5.13672 -0.0781,-1.48438 q -0.70313,0.91797 -1.46485,1.32813 -0.75195,0.40039 -1.75781,0.40039 -2.07031,0 -3.27148,-1.38672 -1.19141,-1.38672 -1.19141,-3.79883 0,-2.4707 1.16211,-3.85742 1.17187,-1.39649 3.24219,-1.39649 1.02539,0 1.85547,0.42969 0.83984,0.41992 1.42578,1.25 l 0,-5.88867 1.83593,0 0,12.40234 q 0,0.52735 0.0293,1.01563 0.0293,0.48828 0.0879,0.98633 l -1.875,0 z"
         id="path5755"
         inkscape:connector-curvature="0" />
      <path
         d="m 547.24414,403.71819 q -0.3418,0.81054 -1.20117,1.29882 -0.84961,0.47852 -1.96289,0.47852 -0.97656,0 -1.79688,-0.36133 -0.82031,-0.37109 -1.29883,-1.01562 -0.26367,-0.35157 -0.37109,-0.84961 -0.10742,-0.49805 -0.10742,-1.70899 l 0,-6.29883 1.83594,0 0,6.41602 q 0,1.26953 0.54687,1.86523 0.54688,0.59571 1.68945,0.59571 1.17188,0 1.91407,-0.64453 0.75195,-0.64454 0.75195,-1.65039 l 0,-6.58204 1.85547,0 0,8.05664 q 0,0.59571 0.0195,1.08399 0.0195,0.47851 0.0684,0.89844 l -1.88477,0 -0.0586,-1.58203 z"
         id="path5757"
         inkscape:connector-curvature="0" />
      <path
         d="m 560.05664,401.92131 q -0.11719,1.75781 -1.12305,2.69531 -1.00586,0.92774 -2.79297,0.92774 -2.13867,0 -3.30078,-1.3086 -1.16211,-1.31836 -1.16211,-3.74023 0,-2.58789 1.21094,-4.0332 1.2207,-1.44532 3.38867,-1.44532 1.68946,0 2.69532,0.91797 1.00586,0.90821 1.00586,2.44141 l 0,0.0391 -1.79688,0 q 0,-0.89844 -0.58594,-1.49414 -0.58593,-0.60547 -1.45508,-0.60547 -1.18164,0 -1.86523,1.00586 -0.67383,0.99609 -0.67383,2.73438 0,2.02148 0.625,3.05664 0.63477,1.02539 1.875,1.02539 0.9668,0 1.55274,-0.59571 0.58593,-0.60546 0.60547,-1.62109 l 1.79687,0 z"
         id="path5759"
         inkscape:connector-curvature="0" />
      <path
         d="m 563.97266,399.28459 5.17578,0 0,-0.22461 q 0,-1.25 -0.69336,-2.01172 -0.6836,-0.77148 -1.77735,-0.77148 -1.20117,0 -1.95312,0.83008 -0.75195,0.83008 -0.75195,2.17773 z m 6.875,2.79297 q -0.01,1.5625 -1.12305,2.51953 -1.10352,0.94727 -2.92969,0.94727 -2.34375,0 -3.55469,-1.28907 -1.21093,-1.28906 -1.21093,-3.77929 0,-2.64649 1.1914,-4.05274 1.20117,-1.40625 3.42774,-1.40625 2.04101,0 3.21289,1.17188 1.17187,1.16211 1.17187,3.17383 0,0.48828 -0.01,0.74218 -0.01,0.25391 -0.0293,0.47852 l -7.11914,0 0,0.19531 0,0.40039 q 0,1.42578 0.73242,2.20703 0.73242,0.77149 2.07031,0.77149 1.10352,0 1.74805,-0.55664 0.6543,-0.56641 0.67383,-1.52344 l 1.74805,0 z"
         id="path5761"
         inkscape:connector-curvature="0" />
    </g>
    <flowRoot
       xml:space="preserve"
       id="flowRoot5827"
       style="font-style:normal;font-variant:normal;font-weight:normal;font-stretch:normal;font-size:20px;font-family:'Zurich BT';-inkscape-font-specification:'Zurich BT';text-align:start;text-anchor:start;opacity:1;fill:#fff446;fill-opacity:1;fill-rule:nonzero;stroke:#0000ff;stroke-width:0;stroke-linecap:round;stroke-miterlimit:4;stroke-dasharray:none;stroke-dashoffset:0;stroke-opacity:0.39215686"
       transform="translate(102.71429,55.95378)"><flowRegion
         id="flowRegion5829"><rect
           id="rect5831"
           width="185.71428"
           height="39.285713"
           x="179.28572"
           y="201.49539" /></flowRegion><flowPara
         id="flowPara5833">Farm</flowPara></flowRoot>    <text
       xml:space="preserve"
       style="font-style:normal;font-variant:normal;font-weight:normal;font-stretch:normal;font-size:20px;font-family:'Zurich BT';-inkscape-font-specification:'Zurich BT';text-align:start;text-anchor:start;opacity:1;fill:#fff446;fill-opacity:1;fill-rule:nonzero;stroke:#0000ff;stroke-width:0;stroke-linecap:round;stroke-miterlimit:4;stroke-dasharray:none;stroke-dashoffset:0;stroke-opacity:0.39215686"
       x="317.71429"
       y="-18.979395"
       id="text5835"><tspan
         sodipodi:role="line"
         id="tspan5837"
         x="317.71429"
         y="-18.979395">z</tspan></text>
    <path
       style="opacity:1;fill:#000000;fill-opacity:1;fill-rule:nonzero;stroke:#0000ff;stroke-width:0;stroke-linecap:round;stroke-miterlimit:4;stroke-dasharray:none;stroke-dashoffset:0;stroke-opacity:0.39215686"
       d="m 254.39605,278.83856 0,-70.17857 119.82143,0 119.82143,0 0,70.17857 0,70.17857 -119.82143,0 -119.82143,0 0,-70.17857 z"
       id="path5858"
       inkscape:connector-curvature="0" />
    <g
       transform="translate(138.7901,55.239494)"
       style="font-style:normal;font-variant:normal;font-weight:normal;font-stretch:normal;font-size:40px;font-family:'Zurich BT';-inkscape-font-specification:'Zurich BT';text-align:start;text-anchor:start;opacity:1;fill:#fff446;fill-opacity:1;fill-rule:nonzero;stroke:#0000ff;stroke-width:0;stroke-linecap:round;stroke-miterlimit:4;stroke-dasharray:none;stroke-dashoffset:0;stroke-opacity:0.39215686"
       id="flowRoot5869">
      <path
         d="m 192.60547,234.5145 0,-28.8086 16.75781,0 0,3.45703 -12.91016,0 0,8.82813 12.22657,0 0,3.4375 -12.22657,0 0,13.08594 -3.84765,0 z"
         style=""
         id="path5878" />
      <path
         d="m 228.34766,234.5145 -3.32032,0 q -0.19531,-0.625 -0.39062,-3.04688 0,-0.0781 0,-0.11719 -0.76172,1.77735 -2.42188,2.71485 -1.64062,0.9375 -4.02343,0.9375 -3.04688,0 -4.88282,-1.66016 -1.83593,-1.66016 -1.83593,-4.39453 0,-3.18359 2.53906,-5.03906 2.53906,-1.875 6.93359,-1.875 l 3.4961,0 0,-2.44141 q 0,-1.62109 -1.01563,-2.44141 -0.99609,-0.83984 -2.94922,-0.83984 -1.85547,0 -2.94922,0.91797 -1.07422,0.91797 -1.13281,2.51953 l -3.55469,0 0,-0.3125 q 0,-2.65625 1.89453,-4.0625 1.91407,-1.42578 5.48829,-1.42578 4.16015,0 6.03515,1.48437 1.89453,1.46485 1.89453,4.76563 l 0,12.40234 q 0,0.25391 0.0391,0.78125 0.0586,0.50782 0.15625,1.13282 z m -3.90625,-9.96094 -3.125,0 q -2.8711,0 -4.45313,1.07422 -1.58203,1.05468 -1.58203,2.96875 0,1.46484 1.07422,2.4414 1.07422,0.95703 2.71484,0.95703 2.59766,0 3.98438,-1.38671 1.38672,-1.40625 1.38672,-4.0625 l 0,-1.99219 z"
         style=""
         id="path5880" />
      <path
         d="m 234.12891,234.5145 0,-16.91407 q 0,-0.99609 -0.0391,-1.71875 -0.0195,-0.72265 -0.0781,-1.44531 l 3.71094,0 0.0781,3.84766 q 0.54688,-1.91407 1.95313,-2.8711 1.42578,-0.97656 3.6914,-0.97656 0.41016,0 0.78125,0.0391 0.39063,0.0195 0.74219,0.0977 l 0,3.45703 q -0.60547,-0.11719 -1.11328,-0.17578 -0.50781,-0.0586 -0.89844,-0.0586 -2.48047,0 -3.82812,1.40625 -1.32813,1.40625 -1.32813,4.02343 l 0,11.28907 -3.67187,0 z"
         style=""
         id="path5882" />
      <path
         d="m 252.80078,234.5145 -3.71094,0 0,-15.91797 q 0,-0.54688 -0.0391,-1.66016 -0.0391,-1.13281 -0.11719,-2.5 l 3.75,0 0.11719,3.39844 q 0.78125,-1.66016 2.42188,-2.63672 1.64062,-0.99609 3.67187,-0.99609 2.03125,0 3.65234,0.85937 1.64063,0.85938 2.94922,2.65625 1.54297,-1.89453 3.10547,-2.69531 1.5625,-0.82031 3.61328,-0.82031 2.10938,0 3.84766,0.8789 1.73828,0.87891 2.5,2.34375 0.35156,0.6836 0.48828,1.75781 0.15625,1.07422 0.15625,3.04688 l 0,12.28516 -3.59375,0 0,-12.79297 q 0,-2.34375 -1.11328,-3.51563 -1.09375,-1.17187 -3.30078,-1.17187 -2.2461,0 -3.69141,1.40625 -1.42578,1.40625 -1.42578,3.63281 l 0,12.44141 -3.75,0 0,-12.12891 q 0,-2.77344 -1.07422,-4.08203 -1.07422,-1.3086 -3.33984,-1.3086 -2.40235,0 -3.76953,1.42579 -1.34766,1.40625 -1.34766,3.96484 l 0,12.12891 z"
         style=""
         id="path5884" />
    </g>
    <flowRoot
       xml:space="preserve"
       id="flowRoot5886"
       style="font-style:normal;font-variant:normal;font-weight:normal;font-stretch:normal;font-size:17.5px;font-family:'Zurich BT';-inkscape-font-specification:'Zurich BT';text-align:start;text-anchor:start;opacity:1;fill:#fff446;fill-opacity:1;fill-rule:nonzero;stroke:#0000ff;stroke-width:0;stroke-linecap:round;stroke-miterlimit:4;stroke-dasharray:none;stroke-dashoffset:0;stroke-opacity:0.39215686;"
       transform="translate(102.71429,55.95378)"><flowRegion
         id="flowRegion5888"><rect
           id="rect5890"
           width="255.71428"
           height="63.57143"
           x="34.285713"
           y="500.06683"
           style="font-size:17.5px;" /></flowRegion><flowPara
         id="flowPara5892" /></flowRoot>    <g
       transform="translate(88.143125,-164.76051)"
       style="font-style:normal;font-variant:normal;font-weight:normal;font-stretch:normal;font-size:17.5px;font-family:'Zurich BT';-inkscape-font-specification:'Zurich BT';text-align:start;text-anchor:start;opacity:1;fill:#000000;fill-opacity:1;fill-rule:nonzero;stroke:#0000ff;stroke-width:0;stroke-linecap:round;stroke-miterlimit:4;stroke-dasharray:none;stroke-dashoffset:0;stroke-opacity:0.39215686"
       id="flowRoot5894">
      <path
         d="m 24.337891,520.14787 -1.962891,0 0,-14.40429 1.962891,0 0,6.14257 7.080078,0 0,-6.14257 1.914062,0 0,14.40429 -1.914062,0 0,-6.54297 -7.080078,0 0,6.54297 z"
         style="font-size:20px"
         id="path5928" />
      <path
         d="m 37.951172,514.13225 5.175781,0 0,-0.22461 q 0,-1.25 -0.693359,-2.01172 -0.683594,-0.77148 -1.777344,-0.77148 -1.201172,0 -1.953125,0.83007 -0.751953,0.83008 -0.751953,2.17774 z m 6.875,2.79297 q -0.0098,1.5625 -1.123047,2.51953 -1.103516,0.94726 -2.929688,0.94726 -2.34375,0 -3.554687,-1.28906 -1.210938,-1.28906 -1.210938,-3.7793 0,-2.64648 1.191407,-4.05273 1.201172,-1.40625 3.427734,-1.40625 2.041016,0 3.212891,1.17187 1.171875,1.16211 1.171875,3.17383 0,0.48828 -0.0098,0.74219 -0.0098,0.25391 -0.0293,0.47852 l -7.11914,0 0,0.19531 0,0.40039 q 0,1.42578 0.732421,2.20703 0.732422,0.77148 2.070313,0.77148 1.103516,0 1.748047,-0.55664 0.654297,-0.5664 0.673828,-1.52343 l 1.748047,0 z"
         style="font-size:20px"
         id="path5930" />
      <path
         d="m 47.550781,520.14787 0,-8.45703 q 0,-0.49805 -0.01953,-0.85937 -0.0098,-0.36133 -0.03906,-0.72266 l 1.855469,0 0.03906,1.92383 q 0.273437,-0.95703 0.976562,-1.43555 0.712891,-0.48828 1.845703,-0.48828 0.205078,0 0.390625,0.0195 0.195313,0.01 0.371094,0.0488 l 0,1.72852 q -0.302734,-0.0586 -0.556641,-0.0879 -0.253906,-0.0293 -0.449218,-0.0293 -1.240235,0 -1.914063,0.70312 -0.664062,0.70313 -0.664062,2.01172 l 0,5.64453 -1.835938,0 z"
         style="font-size:20px"
         id="path5932" />
      <path
         d="m 54.953125,505.74358 1.835937,0 0,5.88867 q 0.761719,-0.86914 1.582032,-1.26953 0.830078,-0.41016 1.816406,-0.41016 2.03125,0 3.144531,1.35742 1.113281,1.34766 1.113281,3.83789 0,2.44141 -1.171875,3.84766 -1.162109,1.39648 -3.203125,1.39648 -1.064453,0 -1.894531,-0.41015 -0.820312,-0.41016 -1.386719,-1.21094 l -0.07813,1.37695 -1.884765,0 q 0.06836,-0.49804 0.09766,-0.98633 0.0293,-0.48828 0.0293,-1.01562 l 0,-12.40234 z m 1.835937,9.56054 q 0,1.76758 0.791016,2.82227 0.800781,1.04492 2.109375,1.04492 1.298828,0 2.080078,-1.11328 0.78125,-1.12305 0.78125,-3.04688 0,-1.76757 -0.791015,-2.80273 -0.791016,-1.04492 -2.109375,-1.04492 -1.298829,0 -2.080079,1.12304 -0.78125,1.11329 -0.78125,3.01758 z"
         style="font-size:20px"
         id="path5934" />
      <path
         d="m 69.064453,507.78459 -2.167969,0 0,-2.04101 2.167969,0 0,2.04101 z m -2.001953,12.36328 0,-10.03906 1.855469,0 0,10.03906 -1.855469,0 z"
         style="font-size:20px"
         id="path5936" />
      <path
         d="m 79.816406,516.76897 q -0.117187,1.75781 -1.123047,2.69531 -1.005859,0.92773 -2.792968,0.92773 -2.138672,0 -3.300782,-1.30859 -1.162109,-1.31836 -1.162109,-3.74023 0,-2.5879 1.210937,-4.03321 1.220704,-1.44531 3.388672,-1.44531 1.689453,0 2.695313,0.91797 1.005859,0.9082 1.005859,2.4414 l 0,0.0391 -1.796875,0 q 0,-0.89844 -0.585937,-1.49414 -0.585938,-0.60547 -1.455078,-0.60547 -1.181641,0 -1.865235,1.00586 -0.673828,0.99609 -0.673828,2.73437 0,2.02149 0.625,3.05664 0.634766,1.02539 1.875,1.02539 0.966797,0 1.552734,-0.5957 Q 78,517.78459 78.019531,516.76897 l 1.796875,0 z"
         style="font-size:20px"
         id="path5938" />
      <path
         d="m 84.376953,507.78459 -2.167969,0 0,-2.04101 2.167969,0 0,2.04101 z m -2.001953,12.36328 0,-10.03906 1.855469,0 0,10.03906 -1.855469,0 z"
         style="font-size:20px"
         id="path5940" />
      <path
         d="m 88.693359,515.01115 q 0,1.91407 0.78125,3.03711 0.791016,1.12305 2.080078,1.12305 1.31836,0 2.109375,-1.03516 0.791016,-1.04492 0.791016,-2.8125 0,-1.91406 -0.78125,-3.03711 -0.78125,-1.12304 -2.080078,-1.12304 -1.318359,0 -2.109375,1.04492 -0.791016,1.03516 -0.791016,2.80273 z m 5.839844,5.13672 -0.07813,-1.48437 q -0.703125,0.91797 -1.464844,1.32812 -0.751953,0.40039 -1.757812,0.40039 -2.070313,0 -3.271485,-1.38672 -1.191406,-1.38671 -1.191406,-3.79882 0,-2.47071 1.16211,-3.85743 1.171875,-1.39648 3.242187,-1.39648 1.025391,0 1.855469,0.42969 0.839844,0.41992 1.425781,1.25 l 0,-5.88867 1.835938,0 0,12.40234 q 0,0.52734 0.0293,1.01562 0.0293,0.48829 0.08789,0.98633 l -1.875,0 z"
         style="font-size:20px"
         id="path5942" />
      <path
         d="m 100.80273,514.13225 5.17579,0 0,-0.22461 q 0,-1.25 -0.69336,-2.01172 -0.6836,-0.77148 -1.77735,-0.77148 -1.20117,0 -1.95312,0.83007 -0.75196,0.83008 -0.75196,2.17774 z m 6.875,2.79297 q -0.01,1.5625 -1.12304,2.51953 -1.10352,0.94726 -2.92969,0.94726 -2.34375,0 -3.55469,-1.28906 -1.210935,-1.28906 -1.210935,-3.7793 0,-2.64648 1.191405,-4.05273 1.20117,-1.40625 3.42774,-1.40625 2.04101,0 3.21289,1.17187 1.17187,1.16211 1.17187,3.17383 0,0.48828 -0.01,0.74219 -0.01,0.25391 -0.0293,0.47852 l -7.11914,0 0,0.19531 0,0.40039 q 0,1.42578 0.73242,2.20703 0.73242,0.77148 2.07031,0.77148 1.10352,0 1.74805,-0.55664 0.6543,-0.5664 0.67383,-1.52343 l 1.74804,0 z"
         style="font-size:20px"
         id="path5944" />
      <path
         d="m 109.69922,517.13029 1.85547,0 0,0.0391 q 0,0.82031 0.57617,1.31836 0.58594,0.49804 1.55273,0.49804 0.9375,0 1.51368,-0.43945 0.58593,-0.43945 0.58593,-1.14258 0,-0.51758 -0.29297,-0.83984 -0.29296,-0.32227 -0.91796,-0.47852 l -2.12891,-0.49804 q -1.34766,-0.3125 -2.01172,-0.9668 -0.6543,-0.6543 -0.6543,-1.65039 0,-1.37695 1.11329,-2.22656 1.12304,-0.85938 2.94921,-0.85938 1.68946,0 2.66602,0.71289 0.97656,0.70313 0.97656,1.9336 0,0.11718 -0.01,0.18554 0,0.0586 -0.01,0.10742 l -1.8457,0 0,-0.0781 q 0,-0.72266 -0.51758,-1.14258 -0.50781,-0.41992 -1.39648,-0.41992 -0.86915,0 -1.43555,0.41992 -0.56641,0.41992 -0.56641,1.04492 0,0.48828 0.3418,0.79102 0.3418,0.29297 1.13281,0.50781 l 2.28516,0.625 q 1.18164,0.3125 1.74804,0.97656 0.56641,0.66407 0.56641,1.71875 0,1.42578 -1.08398,2.27539 -1.08399,0.84961 -2.92969,0.84961 -2.09961,0 -3.08594,-0.73242 -0.97656,-0.73242 -0.97656,-2.29492 l 0,-0.23438 z"
         style="font-size:20px"
         id="path5946" />
    </g>
    <g
       style="font-style:normal;font-variant:normal;font-weight:normal;font-stretch:normal;font-size:20px;font-family:'Zurich BT';-inkscape-font-specification:'Zurich BT';text-align:start;text-anchor:start;opacity:1;fill:#000000;fill-opacity:1;fill-rule:nonzero;stroke:#0000ff;stroke-width:0;stroke-linecap:round;stroke-miterlimit:4;stroke-dasharray:none;stroke-dashoffset:0;stroke-opacity:0.39215686"
       id="text5902">
      <path
         d="m 115.21539,372.21066 q 1.60157,0 2.28516,-0.53711 0.69336,-0.54687 0.69336,-1.76757 0,-1.25977 -0.6836,-1.79688 -0.67382,-0.54687 -2.29492,-0.54687 l -2.77343,0 0,4.64843 2.77343,0 z m -4.69726,8.09571 0,-14.4043 5.01953,0 q 2.36328,0 3.52539,0.98633 1.17187,0.98633 1.17187,2.97851 0,2.12891 -1.36718,3.125 -1.35743,0.9961 -4.26758,0.9961 l -2.1582,0 0,6.31836 -1.92383,0 z"
         style=""
         id="path5907" />
      <path
         d="m 122.77399,374.29074 5.17578,0 0,-0.22461 q 0,-1.25 -0.69336,-2.01172 -0.6836,-0.77148 -1.77735,-0.77148 -1.20117,0 -1.95312,0.83008 -0.75195,0.83007 -0.75195,2.17773 z m 6.875,2.79297 q -0.01,1.5625 -1.12305,2.51953 -1.10352,0.94727 -2.92969,0.94727 -2.34375,0 -3.55469,-1.28907 -1.21093,-1.28906 -1.21093,-3.77929 0,-2.64649 1.1914,-4.05274 1.20118,-1.40625 3.42774,-1.40625 2.04101,0 3.21289,1.17188 1.17187,1.16211 1.17187,3.17383 0,0.48828 -0.01,0.74218 -0.01,0.25391 -0.0293,0.47852 l -7.11914,0 0,0.19531 0,0.40039 q 0,1.42578 0.73242,2.20703 0.73242,0.77149 2.07031,0.77149 1.10352,0 1.74805,-0.55664 0.6543,-0.56641 0.67383,-1.52344 l 1.74805,0 z"
         style=""
         id="path5909" />
      <path
         d="m 131.67047,377.28879 1.85547,0 0,0.0391 q 0,0.82031 0.57617,1.31836 0.58594,0.49805 1.55274,0.49805 0.9375,0 1.51367,-0.43946 0.58594,-0.43945 0.58594,-1.14257 0,-0.51758 -0.29297,-0.83985 -0.29297,-0.32226 -0.91797,-0.47851 l -2.12891,-0.49805 q -1.34765,-0.3125 -2.01172,-0.9668 -0.65429,-0.65429 -0.65429,-1.65039 0,-1.37695 1.11328,-2.22656 1.12304,-0.85938 2.94922,-0.85938 1.68945,0 2.66601,0.71289 0.97656,0.70313 0.97656,1.9336 0,0.11719 -0.01,0.18555 0,0.0586 -0.01,0.10742 l -1.8457,0 0,-0.0781 q 0,-0.72265 -0.51758,-1.14258 -0.50781,-0.41992 -1.39648,-0.41992 -0.86914,0 -1.43555,0.41992 -0.56641,0.41993 -0.56641,1.04493 0,0.48828 0.3418,0.79101 0.3418,0.29297 1.13281,0.50781 l 2.28516,0.625 q 1.18164,0.3125 1.74805,0.97657 0.5664,0.66406 0.5664,1.71875 0,1.42578 -1.08398,2.27539 -1.08399,0.84961 -2.92969,0.84961 -2.09961,0 -3.08594,-0.73243 -0.97656,-0.73242 -0.97656,-2.29492 l 0,-0.23437 z"
         style=""
         id="path5911" />
      <path
         d="m 140.88922,370.2673 1.70899,0 0,-2.06054 1.83593,-0.625 0,2.68554 2.23633,0 0,1.31836 -2.23633,0 0,6.16211 q 0,0.78125 0.25391,1.03516 0.26367,0.24414 1.02539,0.24414 0.19531,0 0.41992,-0.0293 0.22461,-0.0391 0.49805,-0.10742 l 0,1.39648 q -0.44922,0.11719 -0.81055,0.17579 -0.36133,0.0684 -0.64453,0.0684 -1.41602,0 -2.00195,-0.48829 -0.57617,-0.48828 -0.57617,-1.64062 l 0,-6.81641 -1.70899,0 0,-1.31836 z"
         style=""
         id="path5913" />
      <path
         d="m 150.60602,367.94308 -2.16797,0 0,-2.04101 2.16797,0 0,2.04101 z m -2.00196,12.36329 0,-10.03907 1.85547,0 0,10.03907 -1.85547,0 z"
         style=""
         id="path5915" />
      <path
         d="m 161.35797,376.92746 q -0.11719,1.75781 -1.12305,2.69531 -1.00586,0.92774 -2.79296,0.92774 -2.13868,0 -3.30079,-1.3086 -1.16211,-1.31836 -1.16211,-3.74023 0,-2.58789 1.21094,-4.0332 1.22071,-1.44532 3.38867,-1.44532 1.68946,0 2.69532,0.91797 1.00586,0.9082 1.00586,2.44141 l 0,0.0391 -1.79688,0 q 0,-0.89844 -0.58594,-1.49414 -0.58593,-0.60547 -1.45507,-0.60547 -1.18165,0 -1.86524,1.00586 -0.67383,0.99609 -0.67383,2.73438 0,2.02148 0.625,3.05664 0.63477,1.02539 1.875,1.02539 0.9668,0 1.55274,-0.59571 0.58593,-0.60547 0.60547,-1.62109 l 1.79687,0 z"
         style=""
         id="path5917" />
      <path
         d="m 165.91852,367.94308 -2.16797,0 0,-2.04101 2.16797,0 0,2.04101 z m -2.00196,12.36329 0,-10.03907 1.85547,0 0,10.03907 -1.85547,0 z"
         style=""
         id="path5919" />
      <path
         d="m 170.23492,375.16965 q 0,1.91406 0.78125,3.03711 0.79102,1.12304 2.08008,1.12304 1.31836,0 2.10938,-1.03515 0.79101,-1.04492 0.79101,-2.8125 0,-1.91407 -0.78125,-3.03711 -0.78125,-1.12305 -2.08008,-1.12305 -1.31835,0 -2.10937,1.04492 -0.79102,1.03516 -0.79102,2.80274 z m 5.83985,5.13672 -0.0781,-1.48438 q -0.70312,0.91797 -1.46484,1.32813 -0.75195,0.40039 -1.75781,0.40039 -2.07032,0 -3.27149,-1.38672 -1.1914,-1.38672 -1.1914,-3.79883 0,-2.4707 1.16211,-3.85742 1.17187,-1.39649 3.24218,-1.39649 1.02539,0 1.85547,0.42969 0.83985,0.41992 1.42578,1.25 l 0,-5.88867 1.83594,0 0,12.40234 q 0,0.52735 0.0293,1.01563 0.0293,0.48828 0.0879,0.98633 l -1.875,0 z"
         style=""
         id="path5921" />
      <path
         d="m 182.3443,374.29074 5.17578,0 0,-0.22461 q 0,-1.25 -0.69336,-2.01172 -0.68359,-0.77148 -1.77734,-0.77148 -1.20117,0 -1.95313,0.83008 -0.75195,0.83007 -0.75195,2.17773 z m 6.875,2.79297 q -0.01,1.5625 -1.12305,2.51953 -1.10351,0.94727 -2.92969,0.94727 -2.34375,0 -3.55468,-1.28907 -1.21094,-1.28906 -1.21094,-3.77929 0,-2.64649 1.19141,-4.05274 1.20117,-1.40625 3.42773,-1.40625 2.04102,0 3.21289,1.17188 1.17188,1.16211 1.17188,3.17383 0,0.48828 -0.01,0.74218 -0.01,0.25391 -0.0293,0.47852 l -7.11914,0 0,0.19531 0,0.40039 q 0,1.42578 0.73242,2.20703 0.73243,0.77149 2.07032,0.77149 1.10351,0 1.74804,-0.55664 0.6543,-0.56641 0.67383,-1.52344 l 1.74805,0 z"
         style=""
         id="path5923" />
      <path
         d="m 191.24078,377.28879 1.85547,0 0,0.0391 q 0,0.82031 0.57617,1.31836 0.58594,0.49805 1.55274,0.49805 0.9375,0 1.51367,-0.43946 0.58594,-0.43945 0.58594,-1.14257 0,-0.51758 -0.29297,-0.83985 -0.29297,-0.32226 -0.91797,-0.47851 l -2.12891,-0.49805 q -1.34765,-0.3125 -2.01171,-0.9668 -0.6543,-0.65429 -0.6543,-1.65039 0,-1.37695 1.11328,-2.22656 1.12305,-0.85938 2.94922,-0.85938 1.68945,0 2.66601,0.71289 0.97657,0.70313 0.97657,1.9336 0,0.11719 -0.01,0.18555 0,0.0586 -0.01,0.10742 l -1.84571,0 0,-0.0781 q 0,-0.72265 -0.51758,-1.14258 -0.50781,-0.41992 -1.39648,-0.41992 -0.86914,0 -1.43555,0.41992 -0.5664,0.41993 -0.5664,1.04493 0,0.48828 0.34179,0.79101 0.3418,0.29297 1.13282,0.50781 l 2.28515,0.625 q 1.18164,0.3125 1.74805,0.97657 0.56641,0.66406 0.56641,1.71875 0,1.42578 -1.08399,2.27539 -1.08398,0.84961 -2.92969,0.84961 -2.09961,0 -3.08593,-0.73243 -0.97657,-0.73242 -0.97657,-2.29492 l 0,-0.23437 z"
         style=""
         id="path5925" />
    </g>
  </g>
</svg>
