<?xml version="1.0" encoding="UTF-8" standalone="no"?>
<!-- Created with Inkscape (http://www.inkscape.org/) -->

<svg
   xmlns:dc="http://purl.org/dc/elements/1.1/"
   xmlns:cc="http://creativecommons.org/ns#"
   xmlns:rdf="http://www.w3.org/1999/02/22-rdf-syntax-ns#"
   xmlns:svg="http://www.w3.org/2000/svg"
   xmlns="http://www.w3.org/2000/svg"
   xmlns:sodipodi="http://sodipodi.sourceforge.net/DTD/sodipodi-0.dtd"
   xmlns:inkscape="http://www.inkscape.org/namespaces/inkscape"
   width="959.99994"
   height="540"
   viewBox="0 0 959.99994 540"
   id="svg4133"
   version="1.1"
   inkscape:version="0.91 r13725"
   sodipodi:docname="makani-slide-bg.svg">
  <defs
     id="defs4135" />
  <sodipodi:namedview
     id="base"
     pagecolor="#ffffff"
     bordercolor="#666666"
     borderopacity="1.0"
     inkscape:pageopacity="0.0"
     inkscape:pageshadow="2"
     inkscape:zoom="0.7"
     inkscape:cx="582.99374"
     inkscape:cy="209.28585"
     inkscape:document-units="px"
     inkscape:current-layer="layer1"
     showgrid="false"
     inkscape:window-width="1326"
     inkscape:window-height="674"
     inkscape:window-x="112"
     inkscape:window-y="10"
     inkscape:window-maximized="0"
     units="px"
     fit-margin-top="0"
     fit-margin-left="0"
     fit-margin-right="0"
     fit-margin-bottom="0"
     inkscape:showpageshadow="false"
     showborder="false" />
  <metadata
     id="metadata4138">
    <rdf:RDF>
      <cc:Work
         rdf:about="">
        <dc:format>image/svg+xml</dc:format>
        <dc:type
           rdf:resource="http://purl.org/dc/dcmitype/StillImage" />
        <dc:title></dc:title>
      </cc:Work>
    </rdf:RDF>
  </metadata>
  <g
     inkscape:label="Layer 1"
     inkscape:groupmode="layer"
     id="layer1"
     transform="translate(0,-512.36226)">
    <rect
       style="fill:#181964;fill-opacity:1;stroke:#ffffff;stroke-width:0.95968592;stroke-opacity:1"
       id="rect4683"
       width="959.04028"
       height="539.04034"
       x="0.47984296"
       y="512.8421" />
    <path
       style="fill:#fff446;fill-opacity:1;stroke:#fff446;stroke-width:0.19249752;stroke-opacity:1"
       d="m 95.531667,1017.5169 c -1.79084,-0.1002 -2.53804,-0.2195 -2.88214,-0.4606 -0.25552,-0.1789 -0.59689,-0.324 -0.75863,-0.3224 -0.26009,0 -0.2607,0.024 -0.006,0.1895 0.43722,0.2826 -0.58373,0.245 -2.30555,-0.085 -0.79649,-0.1526 -2.05449,-0.3807 -2.79562,-0.5069 -0.74112,-0.1263 -1.58478,-0.3497 -1.87486,-0.4965 -0.29002,-0.1468 -0.59321,-0.2869 -0.67372,-0.3112 -0.0805,-0.024 -0.11987,-0.1238 -0.0874,-0.2211 0.0323,-0.097 -0.0658,-0.073 -0.21844,0.053 -0.21253,0.1764 -0.49664,0.1786 -1.21396,0.01 -0.5151,-0.1213 -1.07542,-0.2896 -1.24513,-0.3741 -0.16971,-0.085 -0.70589,-0.2134 -1.1915,-0.2862 -0.48555,-0.073 -1.03148,-0.2966 -1.21307,-0.4973 -0.18164,-0.2006 -0.48494,-0.3648 -0.674,-0.3648 -0.18911,0 -0.39735,-0.087 -0.4628,-0.1925 -0.0654,-0.1059 -0.4201,-0.1926 -0.78812,-0.1926 -0.36803,0 -0.87081,-0.132 -1.11729,-0.2936 -0.24643,-0.1615 -0.76677,-0.3055 -1.15632,-0.3202 -0.38949,-0.014 -0.75294,-0.099 -0.80769,-0.1876 -0.0546,-0.089 -0.27341,-0.161 -0.48594,-0.161 -0.21259,0 -0.66224,-0.2017 -0.99926,-0.4481 -0.33703,-0.2464 -1.00261,-0.5603 -1.47902,-0.6974 -2.0594,-0.5926 -2.80482,-0.8412 -3.0116,-1.0042 -0.12115,-0.096 -0.29444,-0.1548 -0.38498,-0.1316 -0.0905,0.023 -0.90097,-0.3116 -1.80087,-0.7442 -0.89991,-0.4325 -1.88986,-0.8438 -2.19985,-0.9139 -0.83908,-0.19 -2.99761,-1.2372 -2.99761,-1.4543 0,-0.1038 -0.15689,-0.1888 -0.34868,-0.1888 -0.19179,0 -0.53467,-0.1732 -0.76192,-0.3849 -0.2273,-0.2118 -0.56388,-0.3851 -0.74798,-0.3851 -0.3247,0 -5.11672,-2.3426 -5.60066,-2.738 -0.29705,-0.2426 -0.74597,0.087 -0.93325,0.6861 -0.11262,0.36 -0.39757,0.776 -1.23526,1.8032 -0.10426,0.1279 -0.18961,0.2804 -0.18961,0.3388 0,0.1459 -1.26303,1.954 -2.02138,2.8937 -1.46513,1.8156 -6.2319,6.2561 -6.71572,6.2561 -0.0607,0 -0.56985,0.294 -1.13151,0.6533 -1.20537,0.7711 -3.32203,1.4661 -4.44456,1.4595 -2.23085,-0.013 -4.09355,-0.8865 -6.06286,-2.8426 -2.05689,-2.0432 -2.52293,-2.853 -4.23287,-7.3551 -0.5505,-1.4493 -0.85798,-2.6747 -1.08679,-4.3311 -0.17557,-1.2705 -0.40343,-2.5323 -0.50652,-2.804 -0.12405,-0.32716 -0.11959,-0.67206 0.0134,-1.02156 0.13035,-0.3429 0.13292,-0.4858 0.007,-0.4082 -0.36635,0.2265 -0.43615,-0.5199 -0.20417,-2.1832 0.33987,-2.4363 0.78439,-3.9225 1.13324,-3.7887 0.23054,0.088 0.23851,0.055 0.0435,-0.1794 -0.19442,-0.2342 -0.15539,-0.4226 0.20996,-1.0138 0.74692,-1.2086 2.48262,-2.736 3.24627,-2.8568 0.37087,-0.059 0.81751,-0.1349 0.99251,-0.1694 0.91179,-0.1797 4.92996,1.1353 6.88025,2.2517 0.38163,0.2184 1.68357,0.9006 2.89313,1.5159 1.20956,0.6153 2.24907,1.1959 2.30996,1.2903 0.0609,0.094 0.2854,0.226 0.49887,0.2925 0.67155,0.2092 6.73117,3.4239 6.79846,3.6067 0.0351,0.096 0.21286,0.1743 0.39462,0.1743 0.18175,0 0.42578,0.095 0.54236,0.2119 0.1541,0.1541 0.40438,0.1422 0.91881,-0.044 0.60553,-0.219 0.69374,-0.3247 0.61485,-0.7372 -0.0558,-0.2916 0.053,-0.6852 0.27547,-0.9977 0.2021,-0.2838 0.67277,-1.3251 1.04587,-2.314 0.7312,-1.9378 1.8292,-4.2606 2.06314,-4.3646 0.0794,-0.035 0.1444,-0.1521 0.1444,-0.2596 0,-0.1075 0.12009,-0.4685 0.26683,-0.8021 0.14674,-0.3336 0.46253,-1.1696 0.70176,-1.8578 0.469,-1.3493 1.7061,-3.93545 2.62435,-5.48622 0.41837,-0.70665 0.70299,-0.97826 1.07062,-1.02181 0.54426,-0.0645 0.60615,0.0446 0.82531,1.45392 0.0699,0.44941 0.19703,0.86036 0.28256,0.91324 0.24464,0.15118 -0.13777,1.54497 -1.08328,3.94837 -0.47903,1.2175 -1.05412,2.6901 -1.27803,3.2724 -0.2239,0.5823 -0.4764,1.1411 -0.56115,1.2417 -0.0847,0.1005 -0.15404,0.3656 -0.15404,0.5889 0,0.433 -1.21659,3.6357 -2.13841,5.6292 -0.30608,0.662 -0.55652,1.3015 -0.55652,1.421 0,0.1196 -0.18315,0.5137 -0.40694,0.8759 -0.22385,0.3622 -0.36914,0.69626 -0.32287,0.74256 0.49682,0.4968 10.7122,5.478 11.23427,5.478 0.15148,0 0.27537,0.068 0.27537,0.1503 0,0.1754 0.75556,0.4876 2.50247,1.0342 0.68821,0.2154 1.33355,0.47 1.43413,0.566 0.10058,0.096 0.38213,0.1745 0.6256,0.1745 0.24442,0 0.44274,0.117 0.44274,0.2611 0,0.1567 0.21186,0.261 0.52937,0.2607 0.29114,-10e-5 1.35229,0.3263 2.35813,0.7256 1.86209,0.739 3.0533,1.1257 5.9674,1.9369 0.89991,0.2505 2.11264,0.5916 2.69498,0.7579 2.67319,0.7638 9.06682,1.9136 9.63606,1.7329 0.18778,-0.059 0.38475,-0.038 0.43777,0.047 0.28328,0.4584 8.220383,0.4206 10.781783,-0.051 3.93538,-0.725 6.1636,-1.9648 6.90673,-3.8427 0.58831,-1.4867 0.408,-3.2691 -0.44976,-4.4461 -1.35095,-1.8536 -2.62529,-2.9005 -4.7904,-3.9354 -0.47641,-0.2277 -1.11774,-0.5356 -1.42516,-0.6843 -0.30742,-0.1487 -0.67556,-0.27026 -0.81812,-0.27026 -0.14256,0 -0.25919,-0.077 -0.25919,-0.1703 0,-0.094 -0.49804,-0.2297 -1.10686,-0.3023 -0.60877,-0.073 -1.41005,-0.2085 -1.780593,-0.3021 -0.37053,-0.094 -0.91551,-0.2201 -1.211,-0.2809 -0.29544,-0.061 -0.48522,-0.1947 -0.42172,-0.2975 0.0635,-0.1028 -0.068,-0.1869 -0.29226,-0.1869 -0.26226,0 -0.35804,0.08 -0.2685,0.2253 0.0956,0.1546 0.0312,0.1837 -0.20579,0.093 -0.46888,-0.18 -2.99477,-0.659 -3.4719,-0.6584 -0.21175,2e-4 -0.8175,-0.089 -1.3461,-0.1985 -0.7109,-0.1472 -0.99825,-0.1405 -1.10391,0.026 -0.1057,0.1662 -0.14356,0.162 -0.14573,-0.016 0,-0.1342 -0.23712,-0.2393 -0.53233,-0.2377 -0.41252,0 -0.46565,0.044 -0.24063,0.1896 0.24676,0.1594 0.23979,0.187 -0.048,0.1895 -0.18527,0 -0.33686,-0.08 -0.33686,-0.1818 0,-0.1016 -0.23823,-0.1844 -0.52937,-0.184 -0.2912,4e-4 -0.65934,-0.017 -0.81812,-0.038 -0.15884,-0.021 -0.46922,0.019 -0.68978,0.091 -0.28679,0.092 -0.40103,0.046 -0.40103,-0.1623 0,-0.2201 0.22775,-0.2915 0.93041,-0.2915 0.5117,0 0.93035,-0.087 0.93035,-0.1925 0,-0.2123 -1.37749,-0.2565 -2.08561,-0.067 -0.33563,0.09 -0.38436,0.1616 -0.19246,0.2832 0.1783,0.113 0.10309,0.1637 -0.24581,0.1658 -0.4337,0 -0.48996,-0.064 -0.41012,-0.4812 0.093,-0.4864 0.43158,-0.8707 0.43158,-0.4897 0,0.1121 0.13297,0.2038 0.29549,0.2038 0.23589,0 0.25396,-0.078 0.0895,-0.385 -0.17869,-0.3339 -0.14769,-0.3829 0.23382,-0.3698 0.24197,0.01 0.33653,0.057 0.21014,0.1087 -0.12645,0.051 -0.18215,0.2179 -0.12383,0.3698 0.11335,0.2953 0.63765,0.3496 1.40202,0.1451 0.43621,-0.1166 0.44329,-0.1368 0.0963,-0.2726 -0.31333,-0.1226 -0.28595,-0.1488 0.16732,-0.1601 0.29811,-0.01 0.73125,0.089 0.96252,0.2142 0.2312,0.1253 0.76693,0.2145 1.19043,0.1982 0.4235,-0.016 0.66659,0.017 0.54019,0.073 -0.30335,0.1359 -0.0959,0.6556 0.26176,0.6556 0.15371,0 0.22552,-0.087 0.15951,-0.1941 -0.066,-0.1068 0.0805,-0.2745 0.32554,-0.3728 0.40594,-0.1628 0.41129,-0.1811 0.0605,-0.2065 -0.32203,-0.023 -0.29839,-0.066 0.14434,-0.2625 0.41174,-0.1824 0.47803,-0.2859 0.29839,-0.4656 -0.17969,-0.1796 -0.17969,-0.231 0,-0.231 0.42383,0 0.52006,0.037 0.48003,0.1865 -0.0541,0.2008 3.73846,0.1276 3.92997,-0.076 0.0837,-0.089 -0.1943,-0.1051 -0.6178,-0.036 -0.60531,0.099 -0.69579,0.08 -0.42305,-0.086 0.40588,-0.2476 1.70403,-0.076 2.49806,0.3306 0.29421,0.1506 0.615293,0.2242 0.713423,0.1636 0.23528,-0.1454 2.45079,0.3738 3.15478,0.7393 0.30435,0.158 0.65861,0.2469 0.78729,0.1975 0.12867,-0.049 0.34511,0.044 0.48086,0.2077 0.13582,0.1636 0.38793,0.2981 0.56021,0.2988 0.3019,0.001 2.58755,1.3874 3.25893,1.9764 0.17974,0.1577 0.54342,0.3492 0.80808,0.4256 0.77078,0.22226 2.33744,2.03606 3.23791,3.74856 0.97032,1.8453 1.37403,3.523 1.37871,5.7295 0,1.3017 -0.0832,1.7633 -0.4836,2.5987 -0.5781,1.2062 -1.69478,2.4764 -2.57891,2.9336 -0.34996,0.181 -0.67963,0.4949 -0.73265,0.6975 -0.053,0.2027 -0.19458,0.3774 -0.31456,0.3881 -0.11998,0.011 -0.5515,0.05 -0.959,0.087 -0.40744,0.037 -0.94747,0.2024 -1.20014,0.3679 -0.25262,0.1656 -0.84488,0.3372 -1.31605,0.3813 -0.47122,0.044 -1.01398,0.1612 -1.2061,0.2599 -0.81745,0.4203 -5.765193,0.6497 -9.504313,0.4407 z m 13.871223,-1.7484 c 0,-0.1059 -0.0385,-0.1926 -0.0849,-0.1926 -0.0468,0 -0.13838,0.087 -0.20383,0.1926 -0.0655,0.1058 -0.0273,0.1925 0.0849,0.1925 0.11212,0 0.20383,-0.087 0.20383,-0.1925 z m -71.469513,-3.2064 c 0.71726,-0.3871 1.53415,-0.8738 1.81526,-1.0814 0.29588,-0.2186 0.61233,-0.3149 0.75161,-0.2288 0.14847,0.092 0.19195,0.07 0.11362,-0.057 -0.15243,-0.2466 1.39031,-1.5145 1.74451,-1.4338 0.13659,0.031 0.34879,-0.1637 0.47156,-0.4331 0.12271,-0.2694 0.34745,-0.4898 0.49938,-0.4898 0.42673,0 1.39443,-0.6308 1.39443,-0.909 0,-0.1367 0.219,-0.4389 0.48667,-0.6716 0.26767,-0.2328 0.46375,-0.5583 0.43582,-0.7234 -0.0587,-0.3464 0.56127,-1.2892 1.615,-2.4559 0.4042,-0.4476 0.73493,-0.9457 0.73493,-1.1069 0,-0.1612 0.0866,-0.293 0.19252,-0.293 0.10587,0 0.19251,-0.1293 0.19251,-0.2872 0,-0.1579 0.16157,-0.388 0.3591,-0.5113 0.19748,-0.1234 0.32248,-0.3642 0.27782,-0.5351 -0.0446,-0.1711 -1.39616,-0.9806 -3.00597,-1.80066 -1.60853,-0.8194 -4.31065,-2.2297 -6.00459,-3.1341 -5.61148,-2.9957 -7.43655,-3.771 -8.88156,-3.7727 -1.97917,0 -3.45924,1.802 -4.13129,5.0363 -0.28763,1.3845 -0.35944,3.49886 -0.12879,3.79376 0.10013,0.128 0.13136,0.5178 0.0693,0.8662 -0.0851,0.4779 -0.0689,0.5389 0.0657,0.2485 0.17852,-0.385 0.17852,-0.385 0.19463,0 0.009,0.2117 0.0601,0.6016 0.11374,0.8662 0.0851,0.4194 0.0741,0.4318 -0.0854,0.096 -0.10058,-0.2117 -0.18922,-0.2983 -0.19697,-0.1925 -0.008,0.1059 0.1512,0.539 0.35308,0.9625 0.20194,0.4235 0.55686,1.4197 0.78868,2.2137 0.6614,2.2653 1.2996,3.4477 2.5192,4.6672 1.48459,1.4846 2.72197,2.0446 4.5505,2.0591 1.24574,0.01 1.52679,-0.062 2.69498,-0.6928 z m 61.07466,-14.76966 c 0,-0.041 -0.21393,-0.1147 -0.47541,-0.1647 -0.26148,-0.05 -0.42963,-0.017 -0.37365,0.074 0.0986,0.1595 0.84906,0.2398 0.84906,0.091 z m -4.04248,-0.5174 c -0.77759,-0.2269 -1.15163,-0.2016 -1.04715,0.071 0.0639,0.1665 0.33385,0.2195 0.81209,0.1595 0.65761,-0.083 0.6769,-0.1013 0.23506,-0.2302 z m 8.084903,0.2153 c 0,-0.1009 -0.2815,-0.2648 -0.62561,-0.3642 -0.3441,-0.099 -0.77719,-0.2426 -0.96246,-0.3183 -0.18532,-0.076 -0.33647,-0.063 -0.33591,0.027 0,0.091 0.41201,0.3078 0.91435,0.4825 0.50239,0.1747 0.93503,0.3263 0.96151,0.3369 0.0268,0.011 0.048,-0.063 0.048,-0.1642 z m -2.50247,-0.1791 c 0,-0.093 -0.19486,-0.2192 -0.43309,-0.2792 -0.418313,-0.1054 -0.420323,-0.1 -0.0594,0.17 0.43582,0.3257 0.49252,0.3383 0.49252,0.1092 z m -8.523173,-0.14 c -0.20345,-0.2034 -1.87169,-0.265 -1.87169,-0.069 0,0.1027 0.44759,0.1866 0.99458,0.1866 0.54705,0 0.94172,-0.053 0.87711,-0.1175 z m 7.32008,-0.2077 c -0.18527,-0.048 -0.33686,-0.1734 -0.33686,-0.2777 0,-0.1044 -0.0866,-0.1363 -0.19252,-0.071 -0.37165,0.2296 -0.18716,0.481 0.33686,0.4589 0.32571,-0.014 0.39981,-0.056 0.19252,-0.1104 z m -1.02519,-0.317 c -0.11702,-0.3051 -1.23682,-0.3481 -1.23626,-0.048 1.6e-4,0.1147 0.30056,0.2299 0.66747,0.256 0.4889,0.035 0.64082,-0.021 0.56879,-0.2085 z m -24.69949,1.6746 c 0.2433,-0.2931 0.74814,-0.3554 0.74814,-0.092 0,0.094 -0.21732,0.2116 -0.48293,0.2624 -0.39088,0.075 -0.44145,0.042 -0.26521,-0.1701 z m 6.4268,-0.4549 c 0.21175,-0.091 0.60158,-0.1702 0.86624,-0.176 0.37928,-0.01 0.42009,0.029 0.19251,0.176 -0.15884,0.1026 -0.54861,0.1819 -0.86623,0.176 -0.49581,-0.01 -0.52308,-0.034 -0.19252,-0.176 z m -2.12881,-0.273 c 0.4337,-0.3534 0.61601,-0.3795 0.78132,-0.112 0.0655,0.1059 -0.009,0.1925 -0.16536,0.1925 -0.15639,0 -0.44307,0.05 -0.63698,0.112 -0.3227,0.1024 -0.32091,0.086 0.0212,-0.1925 z m 3.92144,0.1415 c 0.13899,-0.056 0.30502,-0.049 0.36897,0.015 0.0639,0.064 -0.0496,0.1095 -0.25267,0.1011 -0.22424,-0.01 -0.26985,-0.055 -0.1163,-0.1163 z m 0.91323,-0.1171 c 0.3823,-0.214 1.89671,-0.2193 2.27249,-0.01 0.17289,0.097 -0.27793,0.1636 -1.14416,0.1685 -0.91407,0 -1.32084,-0.053 -1.12833,-0.1605 z m -3.71114,-0.2027 c 0.044,-0.1339 0.56528,-0.2322 1.3093,-0.2469 0.6798,-0.014 0.97607,0.014 0.65845,0.062 -0.31763,0.047 -0.90683,0.1586 -1.30931,0.2469 -0.5277,0.1157 -0.71135,0.098 -0.65844,-0.062 z m 6.53558,0.03 c 0.11881,-0.3565 0.47379,-0.3969 0.59985,-0.068 0.0798,0.208 -0.006,0.2969 -0.28105,0.2969 -0.21933,0 -0.36111,-0.1017 -0.3188,-0.2286 z m -3.89406,-0.3715 c 0,-0.094 0.26265,-0.1699 0.58368,-0.1699 0.42539,0 0.6309,-0.1175 0.75779,-0.4331 0.16737,-0.4164 0.17456,-0.4126 0.18627,0.096 0.007,0.2911 -0.053,0.5388 -0.13213,0.5504 -0.78383,0.1146 -1.39561,0.096 -1.39561,-0.044 z m 2.97749,-0.18 c -0.12182,-0.1971 0.93609,-0.3768 1.1276,-0.1916 0.0874,0.085 -0.11134,0.1934 -0.44162,0.2419 -0.33023,0.048 -0.63898,0.026 -0.68598,-0.05 z m -0.66753,-0.1824 c 0,-0.1059 0.0866,-0.1925 0.19251,-0.1925 0.10588,0 0.19246,0.087 0.19246,0.1925 0,0.1059 -0.0866,0.1925 -0.19246,0.1925 -0.10587,0 -0.19251,-0.087 -0.19251,-0.1925 z m -2.53855,-0.324 c 0.13894,-0.056 0.30497,-0.049 0.36898,0.015 0.0639,0.064 -0.0496,0.1094 -0.25268,0.1011 -0.22429,-0.01 -0.26984,-0.055 -0.1163,-0.1163 z m 5.18893,-0.2859 c 0.11189,-0.1119 0.31701,-0.1655 0.45589,-0.1193 0.14418,0.048 0.0569,0.1354 -0.20339,0.2034 -0.32019,0.084 -0.39534,0.059 -0.2525,-0.084 z m 8.32196,-0.5451 c 0,-0.1059 0.22167,-0.1925 0.49263,-0.1925 0.27938,0 0.44112,0.083 0.3736,0.1925 -0.0654,0.1059 -0.28707,0.1925 -0.49257,0.1925 -0.20551,0 -0.37366,-0.087 -0.37366,-0.1925 z m -10.82443,-0.2249 c 0.11189,-0.1119 0.31701,-0.1655 0.45589,-0.1192 0.14418,0.048 0.0569,0.1353 -0.20339,0.2033 -0.32019,0.084 -0.39534,0.059 -0.2525,-0.084 z m 7.1245,-0.1103 c 0.69964,-0.04 1.161,-0.1456 1.09549,-0.2516 -0.0639,-0.1035 0.16385,-0.1718 0.52374,-0.157 0.45701,0.019 0.51382,0.05 0.20104,0.11 -0.23979,0.046 -0.38631,0.1643 -0.32554,0.2626 0.0649,0.1049 -0.47022,0.1634 -1.29648,0.1416 l -1.40698,-0.037 1.20873,-0.069 z m 3.75172,-0.1832 c 0.18733,-0.049 0.4472,-0.046 0.57755,0.01 0.13029,0.053 -0.0229,0.093 -0.3406,0.089 -0.31762,0 -0.42422,-0.047 -0.23695,-0.096 z"
       id="path3158"
       inkscape:connector-curvature="0" />
  </g>
</svg>
